M48
; DRILL file {KiCad 9.0.7} date 2026-08-24T21:26:02-0500
; FORMAT={-:-/ absolute / inch / decimal}
; #@! TF.CreationDate,2026-08-24T21:26:02-05:00
; #@! TF.GenerationSoftware,Kicad,Pcbnew,9.0.7
; #@! TF.FileFunction,MixedPlating,1,4
FMAT,2
INCH
; #@! TA.AperFunction,Plated,PTH,ComponentDrill
T1C0.0079
; #@! TA.AperFunction,Plated,PTH,ViaDrill
T2C0.0118
; #@! TA.AperFunction,NonPlated,NPTH,ComponentDrill
T3C0.0256
%
G90
G05
T1
X4.4213Y-4.7835
X4.4439Y-4.7461
X4.4439Y-4.8209
X4.4665Y-4.7835
T2
X4.0394Y-4.4724
X4.0551Y-5.9646
X4.127Y-4.0803
X4.1614Y-2.4921
X4.1811Y-5.937
X4.3307Y-5.6299
X4.3622Y-4.0236
X4.3701Y-4.3543
X4.378Y-4.4252
X4.378Y-5.8268
X4.3898Y-5.0
X4.4222Y-4.3165
X4.4291Y-5.0787
X4.4409Y-4.189
X4.5Y-4.9016
X4.5079Y-5.9055
X4.5098Y-4.6752
X4.5118Y-4.0866
X4.5197Y-2.4823
X4.5276Y-4.8346
X4.5665Y-4.1995
X4.5768Y-5.4331
X4.622Y-4.8268
X4.6378Y-4.7638
X4.7067Y-4.685
X4.7087Y-5.0472
X4.8386Y-2.4961
X5.1378Y-2.5098
X5.1969Y-2.6772
X5.3051Y-2.6772
X5.4724Y-2.7461
X5.5413Y-2.3819
X5.5512Y-3.0472
X5.5709Y-2.7461
X5.7087Y-2.3327
X5.7104Y-2.5588
X5.7185Y-2.2343
X5.7382Y-2.6575
X5.7402Y-3.0472
X5.8957Y-2.6772
X5.9724Y-2.4478
X6.063Y-2.9921
X6.1024Y-2.2402
X6.1319Y-2.4508
X6.1516Y-2.5787
X6.1614Y-2.5394
X6.1713Y-2.5
X6.1811Y-2.2736
X6.189Y-2.7086
X6.1895Y-2.796
X6.1909Y-2.6181
X6.2598Y-2.7854
X6.2657Y-3.0512
X6.3117Y-2.7452
X6.3189Y-3.1496
X6.377Y-2.2205
X6.3878Y-2.687
X6.3976Y-2.5394
X6.4173Y-2.8248
X6.4571Y-2.3551
X6.4764Y-2.2785
X6.5551Y-2.5886
X6.6437Y-2.7657
X6.6614Y-4.0315
X6.874Y-4.3858
X6.9075Y-4.2303
X6.9449Y-2.7008
X7.226Y-3.8425
X7.2283Y-4.0
X7.2539Y-3.7402
X7.2736Y-3.8583
X7.2756Y-3.9606
X7.3031Y-4.2874
X7.3622Y-4.4724
X7.4252Y-4.1024
X7.4409Y-4.0453
X7.4705Y-3.8287
X7.501Y-4.7372
X7.6375Y-4.1634
X7.7365Y-4.1831
X7.7558Y-4.0351
X7.7657Y-4.065
X7.7854Y-4.0846
X7.8248Y-3.7598
X7.8346Y-4.1339
X7.8386Y-4.0945
T3
X4.2591Y-4.0945
X4.2591Y-4.322
M30
