%TF.GenerationSoftware,KiCad,Pcbnew,9.0.7*%
%TF.CreationDate,2026-08-24T21:25:46-05:00*%
%TF.ProjectId,BardsAssistant,42617264-7341-4737-9369-7374616e742e,rev?*%
%TF.SameCoordinates,Original*%
%TF.FileFunction,Legend,Top*%
%TF.FilePolarity,Positive*%
%FSLAX46Y46*%
G04 Gerber Fmt 4.6, Leading zero omitted, Abs format (unit mm)*
G04 Created by KiCad (PCBNEW 9.0.7) date 2026-08-24 21:25:46*
%MOMM*%
%LPD*%
G01*
G04 APERTURE LIST*
%ADD10C,0.158750*%
%ADD11C,0.100000*%
%ADD12C,0.150000*%
%ADD13C,0.120000*%
G04 APERTURE END LIST*
D10*
D11*
X128703884Y-65072419D02*
X128703884Y-64072419D01*
X128703884Y-64072419D02*
X129084836Y-64072419D01*
X129084836Y-64072419D02*
X129180074Y-64120038D01*
X129180074Y-64120038D02*
X129227693Y-64167657D01*
X129227693Y-64167657D02*
X129275312Y-64262895D01*
X129275312Y-64262895D02*
X129275312Y-64405752D01*
X129275312Y-64405752D02*
X129227693Y-64500990D01*
X129227693Y-64500990D02*
X129180074Y-64548609D01*
X129180074Y-64548609D02*
X129084836Y-64596228D01*
X129084836Y-64596228D02*
X128703884Y-64596228D01*
X130275312Y-65072419D02*
X129941979Y-64596228D01*
X129703884Y-65072419D02*
X129703884Y-64072419D01*
X129703884Y-64072419D02*
X130084836Y-64072419D01*
X130084836Y-64072419D02*
X130180074Y-64120038D01*
X130180074Y-64120038D02*
X130227693Y-64167657D01*
X130227693Y-64167657D02*
X130275312Y-64262895D01*
X130275312Y-64262895D02*
X130275312Y-64405752D01*
X130275312Y-64405752D02*
X130227693Y-64500990D01*
X130227693Y-64500990D02*
X130180074Y-64548609D01*
X130180074Y-64548609D02*
X130084836Y-64596228D01*
X130084836Y-64596228D02*
X129703884Y-64596228D01*
X130703884Y-64548609D02*
X131037217Y-64548609D01*
X131180074Y-65072419D02*
X130703884Y-65072419D01*
X130703884Y-65072419D02*
X130703884Y-64072419D01*
X130703884Y-64072419D02*
X131180074Y-64072419D01*
X131465789Y-64072419D02*
X131799122Y-65072419D01*
X131799122Y-65072419D02*
X132132455Y-64072419D01*
X112675312Y-65072419D02*
X112341979Y-64596228D01*
X112103884Y-65072419D02*
X112103884Y-64072419D01*
X112103884Y-64072419D02*
X112484836Y-64072419D01*
X112484836Y-64072419D02*
X112580074Y-64120038D01*
X112580074Y-64120038D02*
X112627693Y-64167657D01*
X112627693Y-64167657D02*
X112675312Y-64262895D01*
X112675312Y-64262895D02*
X112675312Y-64405752D01*
X112675312Y-64405752D02*
X112627693Y-64500990D01*
X112627693Y-64500990D02*
X112580074Y-64548609D01*
X112580074Y-64548609D02*
X112484836Y-64596228D01*
X112484836Y-64596228D02*
X112103884Y-64596228D01*
X113056265Y-64786704D02*
X113532455Y-64786704D01*
X112961027Y-65072419D02*
X113294360Y-64072419D01*
X113294360Y-64072419D02*
X113627693Y-65072419D01*
X113961027Y-65072419D02*
X113961027Y-64072419D01*
X113961027Y-64072419D02*
X114532455Y-65072419D01*
X114532455Y-65072419D02*
X114532455Y-64072419D01*
X115008646Y-65072419D02*
X115008646Y-64072419D01*
X115008646Y-64072419D02*
X115246741Y-64072419D01*
X115246741Y-64072419D02*
X115389598Y-64120038D01*
X115389598Y-64120038D02*
X115484836Y-64215276D01*
X115484836Y-64215276D02*
X115532455Y-64310514D01*
X115532455Y-64310514D02*
X115580074Y-64500990D01*
X115580074Y-64500990D02*
X115580074Y-64643847D01*
X115580074Y-64643847D02*
X115532455Y-64834323D01*
X115532455Y-64834323D02*
X115484836Y-64929561D01*
X115484836Y-64929561D02*
X115389598Y-65024800D01*
X115389598Y-65024800D02*
X115246741Y-65072419D01*
X115246741Y-65072419D02*
X115008646Y-65072419D01*
X116199122Y-64072419D02*
X116389598Y-64072419D01*
X116389598Y-64072419D02*
X116484836Y-64120038D01*
X116484836Y-64120038D02*
X116580074Y-64215276D01*
X116580074Y-64215276D02*
X116627693Y-64405752D01*
X116627693Y-64405752D02*
X116627693Y-64739085D01*
X116627693Y-64739085D02*
X116580074Y-64929561D01*
X116580074Y-64929561D02*
X116484836Y-65024800D01*
X116484836Y-65024800D02*
X116389598Y-65072419D01*
X116389598Y-65072419D02*
X116199122Y-65072419D01*
X116199122Y-65072419D02*
X116103884Y-65024800D01*
X116103884Y-65024800D02*
X116008646Y-64929561D01*
X116008646Y-64929561D02*
X115961027Y-64739085D01*
X115961027Y-64739085D02*
X115961027Y-64405752D01*
X115961027Y-64405752D02*
X116008646Y-64215276D01*
X116008646Y-64215276D02*
X116103884Y-64120038D01*
X116103884Y-64120038D02*
X116199122Y-64072419D01*
X117056265Y-65072419D02*
X117056265Y-64072419D01*
X117056265Y-64072419D02*
X117389598Y-64786704D01*
X117389598Y-64786704D02*
X117722931Y-64072419D01*
X117722931Y-64072419D02*
X117722931Y-65072419D01*
X103856265Y-65024800D02*
X103999122Y-65072419D01*
X103999122Y-65072419D02*
X104237217Y-65072419D01*
X104237217Y-65072419D02*
X104332455Y-65024800D01*
X104332455Y-65024800D02*
X104380074Y-64977180D01*
X104380074Y-64977180D02*
X104427693Y-64881942D01*
X104427693Y-64881942D02*
X104427693Y-64786704D01*
X104427693Y-64786704D02*
X104380074Y-64691466D01*
X104380074Y-64691466D02*
X104332455Y-64643847D01*
X104332455Y-64643847D02*
X104237217Y-64596228D01*
X104237217Y-64596228D02*
X104046741Y-64548609D01*
X104046741Y-64548609D02*
X103951503Y-64500990D01*
X103951503Y-64500990D02*
X103903884Y-64453371D01*
X103903884Y-64453371D02*
X103856265Y-64358133D01*
X103856265Y-64358133D02*
X103856265Y-64262895D01*
X103856265Y-64262895D02*
X103903884Y-64167657D01*
X103903884Y-64167657D02*
X103951503Y-64120038D01*
X103951503Y-64120038D02*
X104046741Y-64072419D01*
X104046741Y-64072419D02*
X104284836Y-64072419D01*
X104284836Y-64072419D02*
X104427693Y-64120038D01*
X105332455Y-65072419D02*
X104856265Y-65072419D01*
X104856265Y-65072419D02*
X104856265Y-64072419D01*
X105665789Y-64548609D02*
X105999122Y-64548609D01*
X106141979Y-65072419D02*
X105665789Y-65072419D01*
X105665789Y-65072419D02*
X105665789Y-64072419D01*
X105665789Y-64072419D02*
X106141979Y-64072419D01*
X106570551Y-64548609D02*
X106903884Y-64548609D01*
X107046741Y-65072419D02*
X106570551Y-65072419D01*
X106570551Y-65072419D02*
X106570551Y-64072419D01*
X106570551Y-64072419D02*
X107046741Y-64072419D01*
X107475313Y-65072419D02*
X107475313Y-64072419D01*
X107475313Y-64072419D02*
X107856265Y-64072419D01*
X107856265Y-64072419D02*
X107951503Y-64120038D01*
X107951503Y-64120038D02*
X107999122Y-64167657D01*
X107999122Y-64167657D02*
X108046741Y-64262895D01*
X108046741Y-64262895D02*
X108046741Y-64405752D01*
X108046741Y-64405752D02*
X107999122Y-64500990D01*
X107999122Y-64500990D02*
X107951503Y-64548609D01*
X107951503Y-64548609D02*
X107856265Y-64596228D01*
X107856265Y-64596228D02*
X107475313Y-64596228D01*
X121103884Y-65072419D02*
X121103884Y-64072419D01*
X121103884Y-64072419D02*
X121675312Y-65072419D01*
X121675312Y-65072419D02*
X121675312Y-64072419D01*
X122151503Y-64548609D02*
X122484836Y-64548609D01*
X122627693Y-65072419D02*
X122151503Y-65072419D01*
X122151503Y-65072419D02*
X122151503Y-64072419D01*
X122151503Y-64072419D02*
X122627693Y-64072419D01*
X122961027Y-64072419D02*
X123627693Y-65072419D01*
X123627693Y-64072419D02*
X122961027Y-65072419D01*
X123865789Y-64072419D02*
X124437217Y-64072419D01*
X124151503Y-65072419D02*
X124151503Y-64072419D01*
D12*
X129066667Y-56007200D02*
X129209524Y-56054819D01*
X129209524Y-56054819D02*
X129447619Y-56054819D01*
X129447619Y-56054819D02*
X129542857Y-56007200D01*
X129542857Y-56007200D02*
X129590476Y-55959580D01*
X129590476Y-55959580D02*
X129638095Y-55864342D01*
X129638095Y-55864342D02*
X129638095Y-55769104D01*
X129638095Y-55769104D02*
X129590476Y-55673866D01*
X129590476Y-55673866D02*
X129542857Y-55626247D01*
X129542857Y-55626247D02*
X129447619Y-55578628D01*
X129447619Y-55578628D02*
X129257143Y-55531009D01*
X129257143Y-55531009D02*
X129161905Y-55483390D01*
X129161905Y-55483390D02*
X129114286Y-55435771D01*
X129114286Y-55435771D02*
X129066667Y-55340533D01*
X129066667Y-55340533D02*
X129066667Y-55245295D01*
X129066667Y-55245295D02*
X129114286Y-55150057D01*
X129114286Y-55150057D02*
X129161905Y-55102438D01*
X129161905Y-55102438D02*
X129257143Y-55054819D01*
X129257143Y-55054819D02*
X129495238Y-55054819D01*
X129495238Y-55054819D02*
X129638095Y-55102438D01*
X129971429Y-55054819D02*
X130209524Y-56054819D01*
X130209524Y-56054819D02*
X130400000Y-55340533D01*
X130400000Y-55340533D02*
X130590476Y-56054819D01*
X130590476Y-56054819D02*
X130828572Y-55054819D01*
X131114286Y-55054819D02*
X131733333Y-55054819D01*
X131733333Y-55054819D02*
X131400000Y-55435771D01*
X131400000Y-55435771D02*
X131542857Y-55435771D01*
X131542857Y-55435771D02*
X131638095Y-55483390D01*
X131638095Y-55483390D02*
X131685714Y-55531009D01*
X131685714Y-55531009D02*
X131733333Y-55626247D01*
X131733333Y-55626247D02*
X131733333Y-55864342D01*
X131733333Y-55864342D02*
X131685714Y-55959580D01*
X131685714Y-55959580D02*
X131638095Y-56007200D01*
X131638095Y-56007200D02*
X131542857Y-56054819D01*
X131542857Y-56054819D02*
X131257143Y-56054819D01*
X131257143Y-56054819D02*
X131161905Y-56007200D01*
X131161905Y-56007200D02*
X131114286Y-55959580D01*
X104466667Y-56007200D02*
X104609524Y-56054819D01*
X104609524Y-56054819D02*
X104847619Y-56054819D01*
X104847619Y-56054819D02*
X104942857Y-56007200D01*
X104942857Y-56007200D02*
X104990476Y-55959580D01*
X104990476Y-55959580D02*
X105038095Y-55864342D01*
X105038095Y-55864342D02*
X105038095Y-55769104D01*
X105038095Y-55769104D02*
X104990476Y-55673866D01*
X104990476Y-55673866D02*
X104942857Y-55626247D01*
X104942857Y-55626247D02*
X104847619Y-55578628D01*
X104847619Y-55578628D02*
X104657143Y-55531009D01*
X104657143Y-55531009D02*
X104561905Y-55483390D01*
X104561905Y-55483390D02*
X104514286Y-55435771D01*
X104514286Y-55435771D02*
X104466667Y-55340533D01*
X104466667Y-55340533D02*
X104466667Y-55245295D01*
X104466667Y-55245295D02*
X104514286Y-55150057D01*
X104514286Y-55150057D02*
X104561905Y-55102438D01*
X104561905Y-55102438D02*
X104657143Y-55054819D01*
X104657143Y-55054819D02*
X104895238Y-55054819D01*
X104895238Y-55054819D02*
X105038095Y-55102438D01*
X105371429Y-55054819D02*
X105609524Y-56054819D01*
X105609524Y-56054819D02*
X105800000Y-55340533D01*
X105800000Y-55340533D02*
X105990476Y-56054819D01*
X105990476Y-56054819D02*
X106228572Y-55054819D01*
X107038095Y-55054819D02*
X106847619Y-55054819D01*
X106847619Y-55054819D02*
X106752381Y-55102438D01*
X106752381Y-55102438D02*
X106704762Y-55150057D01*
X106704762Y-55150057D02*
X106609524Y-55292914D01*
X106609524Y-55292914D02*
X106561905Y-55483390D01*
X106561905Y-55483390D02*
X106561905Y-55864342D01*
X106561905Y-55864342D02*
X106609524Y-55959580D01*
X106609524Y-55959580D02*
X106657143Y-56007200D01*
X106657143Y-56007200D02*
X106752381Y-56054819D01*
X106752381Y-56054819D02*
X106942857Y-56054819D01*
X106942857Y-56054819D02*
X107038095Y-56007200D01*
X107038095Y-56007200D02*
X107085714Y-55959580D01*
X107085714Y-55959580D02*
X107133333Y-55864342D01*
X107133333Y-55864342D02*
X107133333Y-55626247D01*
X107133333Y-55626247D02*
X107085714Y-55531009D01*
X107085714Y-55531009D02*
X107038095Y-55483390D01*
X107038095Y-55483390D02*
X106942857Y-55435771D01*
X106942857Y-55435771D02*
X106752381Y-55435771D01*
X106752381Y-55435771D02*
X106657143Y-55483390D01*
X106657143Y-55483390D02*
X106609524Y-55531009D01*
X106609524Y-55531009D02*
X106561905Y-55626247D01*
X113466667Y-56007200D02*
X113609524Y-56054819D01*
X113609524Y-56054819D02*
X113847619Y-56054819D01*
X113847619Y-56054819D02*
X113942857Y-56007200D01*
X113942857Y-56007200D02*
X113990476Y-55959580D01*
X113990476Y-55959580D02*
X114038095Y-55864342D01*
X114038095Y-55864342D02*
X114038095Y-55769104D01*
X114038095Y-55769104D02*
X113990476Y-55673866D01*
X113990476Y-55673866D02*
X113942857Y-55626247D01*
X113942857Y-55626247D02*
X113847619Y-55578628D01*
X113847619Y-55578628D02*
X113657143Y-55531009D01*
X113657143Y-55531009D02*
X113561905Y-55483390D01*
X113561905Y-55483390D02*
X113514286Y-55435771D01*
X113514286Y-55435771D02*
X113466667Y-55340533D01*
X113466667Y-55340533D02*
X113466667Y-55245295D01*
X113466667Y-55245295D02*
X113514286Y-55150057D01*
X113514286Y-55150057D02*
X113561905Y-55102438D01*
X113561905Y-55102438D02*
X113657143Y-55054819D01*
X113657143Y-55054819D02*
X113895238Y-55054819D01*
X113895238Y-55054819D02*
X114038095Y-55102438D01*
X114371429Y-55054819D02*
X114609524Y-56054819D01*
X114609524Y-56054819D02*
X114800000Y-55340533D01*
X114800000Y-55340533D02*
X114990476Y-56054819D01*
X114990476Y-56054819D02*
X115228572Y-55054819D01*
X116085714Y-55054819D02*
X115609524Y-55054819D01*
X115609524Y-55054819D02*
X115561905Y-55531009D01*
X115561905Y-55531009D02*
X115609524Y-55483390D01*
X115609524Y-55483390D02*
X115704762Y-55435771D01*
X115704762Y-55435771D02*
X115942857Y-55435771D01*
X115942857Y-55435771D02*
X116038095Y-55483390D01*
X116038095Y-55483390D02*
X116085714Y-55531009D01*
X116085714Y-55531009D02*
X116133333Y-55626247D01*
X116133333Y-55626247D02*
X116133333Y-55864342D01*
X116133333Y-55864342D02*
X116085714Y-55959580D01*
X116085714Y-55959580D02*
X116038095Y-56007200D01*
X116038095Y-56007200D02*
X115942857Y-56054819D01*
X115942857Y-56054819D02*
X115704762Y-56054819D01*
X115704762Y-56054819D02*
X115609524Y-56007200D01*
X115609524Y-56007200D02*
X115561905Y-55959580D01*
X153338095Y-66854819D02*
X153909523Y-66854819D01*
X153623809Y-67854819D02*
X153623809Y-66854819D01*
X154242857Y-67854819D02*
X154242857Y-66854819D01*
X154242857Y-66854819D02*
X154623809Y-66854819D01*
X154623809Y-66854819D02*
X154719047Y-66902438D01*
X154719047Y-66902438D02*
X154766666Y-66950057D01*
X154766666Y-66950057D02*
X154814285Y-67045295D01*
X154814285Y-67045295D02*
X154814285Y-67188152D01*
X154814285Y-67188152D02*
X154766666Y-67283390D01*
X154766666Y-67283390D02*
X154719047Y-67331009D01*
X154719047Y-67331009D02*
X154623809Y-67378628D01*
X154623809Y-67378628D02*
X154242857Y-67378628D01*
X155147619Y-66854819D02*
X155814285Y-66854819D01*
X155814285Y-66854819D02*
X155385714Y-67854819D01*
X121466667Y-56007200D02*
X121609524Y-56054819D01*
X121609524Y-56054819D02*
X121847619Y-56054819D01*
X121847619Y-56054819D02*
X121942857Y-56007200D01*
X121942857Y-56007200D02*
X121990476Y-55959580D01*
X121990476Y-55959580D02*
X122038095Y-55864342D01*
X122038095Y-55864342D02*
X122038095Y-55769104D01*
X122038095Y-55769104D02*
X121990476Y-55673866D01*
X121990476Y-55673866D02*
X121942857Y-55626247D01*
X121942857Y-55626247D02*
X121847619Y-55578628D01*
X121847619Y-55578628D02*
X121657143Y-55531009D01*
X121657143Y-55531009D02*
X121561905Y-55483390D01*
X121561905Y-55483390D02*
X121514286Y-55435771D01*
X121514286Y-55435771D02*
X121466667Y-55340533D01*
X121466667Y-55340533D02*
X121466667Y-55245295D01*
X121466667Y-55245295D02*
X121514286Y-55150057D01*
X121514286Y-55150057D02*
X121561905Y-55102438D01*
X121561905Y-55102438D02*
X121657143Y-55054819D01*
X121657143Y-55054819D02*
X121895238Y-55054819D01*
X121895238Y-55054819D02*
X122038095Y-55102438D01*
X122371429Y-55054819D02*
X122609524Y-56054819D01*
X122609524Y-56054819D02*
X122800000Y-55340533D01*
X122800000Y-55340533D02*
X122990476Y-56054819D01*
X122990476Y-56054819D02*
X123228572Y-55054819D01*
X124038095Y-55388152D02*
X124038095Y-56054819D01*
X123800000Y-55007200D02*
X123561905Y-55721485D01*
X123561905Y-55721485D02*
X124180952Y-55721485D01*
X145338095Y-61254819D02*
X145909523Y-61254819D01*
X145623809Y-62254819D02*
X145623809Y-61254819D01*
X146242857Y-62254819D02*
X146242857Y-61254819D01*
X146242857Y-61254819D02*
X146623809Y-61254819D01*
X146623809Y-61254819D02*
X146719047Y-61302438D01*
X146719047Y-61302438D02*
X146766666Y-61350057D01*
X146766666Y-61350057D02*
X146814285Y-61445295D01*
X146814285Y-61445295D02*
X146814285Y-61588152D01*
X146814285Y-61588152D02*
X146766666Y-61683390D01*
X146766666Y-61683390D02*
X146719047Y-61731009D01*
X146719047Y-61731009D02*
X146623809Y-61778628D01*
X146623809Y-61778628D02*
X146242857Y-61778628D01*
X147290476Y-62254819D02*
X147480952Y-62254819D01*
X147480952Y-62254819D02*
X147576190Y-62207200D01*
X147576190Y-62207200D02*
X147623809Y-62159580D01*
X147623809Y-62159580D02*
X147719047Y-62016723D01*
X147719047Y-62016723D02*
X147766666Y-61826247D01*
X147766666Y-61826247D02*
X147766666Y-61445295D01*
X147766666Y-61445295D02*
X147719047Y-61350057D01*
X147719047Y-61350057D02*
X147671428Y-61302438D01*
X147671428Y-61302438D02*
X147576190Y-61254819D01*
X147576190Y-61254819D02*
X147385714Y-61254819D01*
X147385714Y-61254819D02*
X147290476Y-61302438D01*
X147290476Y-61302438D02*
X147242857Y-61350057D01*
X147242857Y-61350057D02*
X147195238Y-61445295D01*
X147195238Y-61445295D02*
X147195238Y-61683390D01*
X147195238Y-61683390D02*
X147242857Y-61778628D01*
X147242857Y-61778628D02*
X147290476Y-61826247D01*
X147290476Y-61826247D02*
X147385714Y-61873866D01*
X147385714Y-61873866D02*
X147576190Y-61873866D01*
X147576190Y-61873866D02*
X147671428Y-61826247D01*
X147671428Y-61826247D02*
X147719047Y-61778628D01*
X147719047Y-61778628D02*
X147766666Y-61683390D01*
X153738095Y-60202819D02*
X154309523Y-60202819D01*
X154023809Y-61202819D02*
X154023809Y-60202819D01*
X154642857Y-61202819D02*
X154642857Y-60202819D01*
X154642857Y-60202819D02*
X155023809Y-60202819D01*
X155023809Y-60202819D02*
X155119047Y-60250438D01*
X155119047Y-60250438D02*
X155166666Y-60298057D01*
X155166666Y-60298057D02*
X155214285Y-60393295D01*
X155214285Y-60393295D02*
X155214285Y-60536152D01*
X155214285Y-60536152D02*
X155166666Y-60631390D01*
X155166666Y-60631390D02*
X155119047Y-60679009D01*
X155119047Y-60679009D02*
X155023809Y-60726628D01*
X155023809Y-60726628D02*
X154642857Y-60726628D01*
X156071428Y-60536152D02*
X156071428Y-61202819D01*
X155833333Y-60155200D02*
X155595238Y-60869485D01*
X155595238Y-60869485D02*
X156214285Y-60869485D01*
X146488095Y-69254819D02*
X147059523Y-69254819D01*
X146773809Y-70254819D02*
X146773809Y-69254819D01*
X147392857Y-70254819D02*
X147392857Y-69254819D01*
X147392857Y-69254819D02*
X147773809Y-69254819D01*
X147773809Y-69254819D02*
X147869047Y-69302438D01*
X147869047Y-69302438D02*
X147916666Y-69350057D01*
X147916666Y-69350057D02*
X147964285Y-69445295D01*
X147964285Y-69445295D02*
X147964285Y-69588152D01*
X147964285Y-69588152D02*
X147916666Y-69683390D01*
X147916666Y-69683390D02*
X147869047Y-69731009D01*
X147869047Y-69731009D02*
X147773809Y-69778628D01*
X147773809Y-69778628D02*
X147392857Y-69778628D01*
X148535714Y-69683390D02*
X148440476Y-69635771D01*
X148440476Y-69635771D02*
X148392857Y-69588152D01*
X148392857Y-69588152D02*
X148345238Y-69492914D01*
X148345238Y-69492914D02*
X148345238Y-69445295D01*
X148345238Y-69445295D02*
X148392857Y-69350057D01*
X148392857Y-69350057D02*
X148440476Y-69302438D01*
X148440476Y-69302438D02*
X148535714Y-69254819D01*
X148535714Y-69254819D02*
X148726190Y-69254819D01*
X148726190Y-69254819D02*
X148821428Y-69302438D01*
X148821428Y-69302438D02*
X148869047Y-69350057D01*
X148869047Y-69350057D02*
X148916666Y-69445295D01*
X148916666Y-69445295D02*
X148916666Y-69492914D01*
X148916666Y-69492914D02*
X148869047Y-69588152D01*
X148869047Y-69588152D02*
X148821428Y-69635771D01*
X148821428Y-69635771D02*
X148726190Y-69683390D01*
X148726190Y-69683390D02*
X148535714Y-69683390D01*
X148535714Y-69683390D02*
X148440476Y-69731009D01*
X148440476Y-69731009D02*
X148392857Y-69778628D01*
X148392857Y-69778628D02*
X148345238Y-69873866D01*
X148345238Y-69873866D02*
X148345238Y-70064342D01*
X148345238Y-70064342D02*
X148392857Y-70159580D01*
X148392857Y-70159580D02*
X148440476Y-70207200D01*
X148440476Y-70207200D02*
X148535714Y-70254819D01*
X148535714Y-70254819D02*
X148726190Y-70254819D01*
X148726190Y-70254819D02*
X148821428Y-70207200D01*
X148821428Y-70207200D02*
X148869047Y-70159580D01*
X148869047Y-70159580D02*
X148916666Y-70064342D01*
X148916666Y-70064342D02*
X148916666Y-69873866D01*
X148916666Y-69873866D02*
X148869047Y-69778628D01*
X148869047Y-69778628D02*
X148821428Y-69731009D01*
X148821428Y-69731009D02*
X148726190Y-69683390D01*
X197266666Y-114254819D02*
X197266666Y-114969104D01*
X197266666Y-114969104D02*
X197219047Y-115111961D01*
X197219047Y-115111961D02*
X197123809Y-115207200D01*
X197123809Y-115207200D02*
X196980952Y-115254819D01*
X196980952Y-115254819D02*
X196885714Y-115254819D01*
X197695238Y-114350057D02*
X197742857Y-114302438D01*
X197742857Y-114302438D02*
X197838095Y-114254819D01*
X197838095Y-114254819D02*
X198076190Y-114254819D01*
X198076190Y-114254819D02*
X198171428Y-114302438D01*
X198171428Y-114302438D02*
X198219047Y-114350057D01*
X198219047Y-114350057D02*
X198266666Y-114445295D01*
X198266666Y-114445295D02*
X198266666Y-114540533D01*
X198266666Y-114540533D02*
X198219047Y-114683390D01*
X198219047Y-114683390D02*
X197647619Y-115254819D01*
X197647619Y-115254819D02*
X198266666Y-115254819D01*
D13*
%TO.C,SW3*%
X132150000Y-61350000D02*
X131760000Y-61350000D01*
X132150000Y-57150000D02*
X132150000Y-61350000D01*
X131760000Y-57150000D02*
X132150000Y-57150000D01*
X129240000Y-57150000D02*
X128850000Y-57150000D01*
X128850000Y-61350000D02*
X129240000Y-61350000D01*
X128850000Y-57150000D02*
X128850000Y-61350000D01*
%TO.C,SW6*%
X104100000Y-57200000D02*
X104100000Y-61400000D01*
X104100000Y-61400000D02*
X104490000Y-61400000D01*
X104490000Y-57200000D02*
X104100000Y-57200000D01*
X107010000Y-57200000D02*
X107400000Y-57200000D01*
X107400000Y-57200000D02*
X107400000Y-61400000D01*
X107400000Y-61400000D02*
X107010000Y-61400000D01*
%TO.C,SW5*%
X113100000Y-57200000D02*
X113100000Y-61400000D01*
X113100000Y-61400000D02*
X113490000Y-61400000D01*
X113490000Y-57200000D02*
X113100000Y-57200000D01*
X116010000Y-57200000D02*
X116400000Y-57200000D01*
X116400000Y-57200000D02*
X116400000Y-61400000D01*
X116400000Y-61400000D02*
X116010000Y-61400000D01*
%TO.C,TP7*%
X150300000Y-66150000D02*
X152700000Y-66150000D01*
X150300000Y-68550000D02*
X150300000Y-66150000D01*
X152700000Y-66150000D02*
X152700000Y-68550000D01*
X152700000Y-68550000D02*
X150300000Y-68550000D01*
%TO.C,SW4*%
X121100000Y-57300000D02*
X121100000Y-61500000D01*
X121100000Y-61500000D02*
X121490000Y-61500000D01*
X121490000Y-57300000D02*
X121100000Y-57300000D01*
X124010000Y-57300000D02*
X124400000Y-57300000D01*
X124400000Y-57300000D02*
X124400000Y-61500000D01*
X124400000Y-61500000D02*
X124010000Y-61500000D01*
%TO.C,TP9*%
X145550000Y-62800000D02*
X147950000Y-62800000D01*
X145550000Y-65200000D02*
X145550000Y-62800000D01*
X147950000Y-62800000D02*
X147950000Y-65200000D01*
X147950000Y-65200000D02*
X145550000Y-65200000D01*
%TO.C,TP4*%
X153800000Y-57550000D02*
X156200000Y-57550000D01*
X153800000Y-59950000D02*
X153800000Y-57550000D01*
X156200000Y-57550000D02*
X156200000Y-59950000D01*
X156200000Y-59950000D02*
X153800000Y-59950000D01*
%TO.C,TP8*%
X146550000Y-66300000D02*
X148950000Y-66300000D01*
X146550000Y-68700000D02*
X146550000Y-66300000D01*
X148950000Y-66300000D02*
X148950000Y-68700000D01*
X148950000Y-68700000D02*
X146550000Y-68700000D01*
%TD*%
M02*
