%TF.GenerationSoftware,KiCad,Pcbnew,9.0.7*%
%TF.CreationDate,2026-08-24T21:25:45-05:00*%
%TF.ProjectId,BardsAssistant,42617264-7341-4737-9369-7374616e742e,rev?*%
%TF.SameCoordinates,Original*%
%TF.FileFunction,Copper,L2,Inr*%
%TF.FilePolarity,Positive*%
%FSLAX46Y46*%
G04 Gerber Fmt 4.6, Leading zero omitted, Abs format (unit mm)*
G04 Created by KiCad (PCBNEW 9.0.7) date 2026-08-24 21:25:45*
%MOMM*%
%LPD*%
G01*
G04 APERTURE LIST*
%TA.AperFunction,ComponentPad*%
%ADD10C,0.500000*%
%TD*%
%TA.AperFunction,ViaPad*%
%ADD11C,0.600000*%
%TD*%
G04 APERTURE END LIST*
D10*
%TO.N,GND*%
%TO.C,U1*%
X112300000Y-121500000D03*
X112875000Y-120550000D03*
X112875000Y-122450000D03*
X113450000Y-121500000D03*
%TD*%
D11*
%TO.N,GND*%
X110800000Y-102200000D03*
X106200000Y-150800000D03*
X114300000Y-124500000D03*
X116250000Y-138000000D03*
X110000000Y-143000000D03*
X114600000Y-103800000D03*
X119550000Y-119000000D03*
X112500000Y-129000000D03*
X114500000Y-150000000D03*
X112800000Y-106400000D03*
X114550000Y-118750000D03*
X117800000Y-121000000D03*
X111000000Y-110600000D03*
X112325000Y-109640000D03*
%TO.N,+3V3*%
X117400000Y-122600000D03*
X115000000Y-122800000D03*
X111500000Y-127000000D03*
%TO.N,/USB_5V*%
X115988427Y-106668178D03*
X119600000Y-128200000D03*
%TO.N,GND*%
X104825000Y-103640000D03*
X111200000Y-148000000D03*
X103000000Y-151500000D03*
X102600000Y-113600000D03*
X111200000Y-112400000D03*
X196997017Y-102491051D03*
X188600000Y-104200000D03*
X183600000Y-101600000D03*
X132000000Y-68000000D03*
X151699998Y-62175002D03*
X190525000Y-120325000D03*
X184800000Y-100600000D03*
X175450000Y-107450000D03*
X134750000Y-68000000D03*
X114800000Y-63050000D03*
X105700000Y-63300000D03*
X141000000Y-77400000D03*
X189000000Y-102750000D03*
X141500000Y-69750000D03*
X122900000Y-63400000D03*
X166500000Y-65750000D03*
X145000000Y-59250000D03*
X161975000Y-56400000D03*
X139000000Y-69750000D03*
X189750000Y-97250000D03*
X184250000Y-95000000D03*
X184750000Y-98000000D03*
X163000000Y-71750000D03*
X187000000Y-113600000D03*
X162500000Y-64500000D03*
X176400000Y-68600000D03*
X174600000Y-111400000D03*
X159000000Y-70750000D03*
X145250000Y-56750000D03*
X185500000Y-108900000D03*
%TO.N,/MOSI*%
X160500000Y-80000000D03*
X157213343Y-71018329D03*
%TO.N,Net-(IC1-IO38)*%
X145043198Y-64992800D03*
%TO.N,Net-(IC1-IO4)*%
X155750000Y-62250000D03*
%TO.N,Net-(IC1-IO6)*%
X156500000Y-64500000D03*
%TO.N,/SCK*%
X159150000Y-77500000D03*
X199100000Y-104000000D03*
%TO.N,/CS*%
X199000000Y-105000000D03*
X198750000Y-95500000D03*
%TO.N,Net-(IC1-IO21)*%
X149750000Y-68000000D03*
%TO.N,/RST*%
X196507127Y-106250055D03*
X160317019Y-69726812D03*
X157250000Y-66500000D03*
%TO.N,/DC*%
X193992873Y-105750055D03*
X157200735Y-68799265D03*
%TO.N,Net-(IC1-IO37)*%
X145750000Y-67500000D03*
%TO.N,Net-(IC1-IO7)*%
X156250000Y-65500000D03*
%TO.N,+3V3*%
X197750000Y-103750000D03*
X169200000Y-102400000D03*
X164010000Y-59820000D03*
X140750000Y-60500000D03*
X168750000Y-70250000D03*
X164500000Y-57875000D03*
X162250000Y-68250000D03*
X155000000Y-56900000D03*
X157000000Y-57750000D03*
X154000000Y-76000000D03*
X197250000Y-103250000D03*
X145800000Y-77400000D03*
X183540000Y-97600000D03*
%TO.N,Net-(IC1-IO5)*%
X156750000Y-63500000D03*
%TO.N,GND*%
X130500000Y-63750000D03*
%TD*%
%TA.AperFunction,Conductor*%
%TO.N,GND*%
G36*
X200692539Y-55320185D02*
G01*
X200738294Y-55372989D01*
X200749500Y-55424500D01*
X200749500Y-154175500D01*
X200729815Y-154242539D01*
X200677011Y-154288294D01*
X200625500Y-154299500D01*
X101874500Y-154299500D01*
X101807461Y-154279815D01*
X101761706Y-154227011D01*
X101750500Y-154175500D01*
X101750500Y-128121153D01*
X118799500Y-128121153D01*
X118799500Y-128278846D01*
X118830261Y-128433489D01*
X118830264Y-128433501D01*
X118890602Y-128579172D01*
X118890609Y-128579185D01*
X118978210Y-128710288D01*
X118978213Y-128710292D01*
X119089707Y-128821786D01*
X119089711Y-128821789D01*
X119220814Y-128909390D01*
X119220827Y-128909397D01*
X119366498Y-128969735D01*
X119366503Y-128969737D01*
X119521153Y-129000499D01*
X119521156Y-129000500D01*
X119521158Y-129000500D01*
X119678844Y-129000500D01*
X119678845Y-129000499D01*
X119833497Y-128969737D01*
X119979179Y-128909394D01*
X120110289Y-128821789D01*
X120221789Y-128710289D01*
X120309394Y-128579179D01*
X120369737Y-128433497D01*
X120400500Y-128278842D01*
X120400500Y-128121158D01*
X120400500Y-128121155D01*
X120400499Y-128121153D01*
X120369738Y-127966510D01*
X120369737Y-127966503D01*
X120369735Y-127966498D01*
X120309397Y-127820827D01*
X120309390Y-127820814D01*
X120221789Y-127689711D01*
X120221786Y-127689707D01*
X120110292Y-127578213D01*
X120110288Y-127578210D01*
X119979185Y-127490609D01*
X119979172Y-127490602D01*
X119833501Y-127430264D01*
X119833489Y-127430261D01*
X119678845Y-127399500D01*
X119678842Y-127399500D01*
X119521158Y-127399500D01*
X119521155Y-127399500D01*
X119366510Y-127430261D01*
X119366498Y-127430264D01*
X119220827Y-127490602D01*
X119220814Y-127490609D01*
X119089711Y-127578210D01*
X119089707Y-127578213D01*
X118978213Y-127689707D01*
X118978210Y-127689711D01*
X118890609Y-127820814D01*
X118890602Y-127820827D01*
X118830264Y-127966498D01*
X118830261Y-127966510D01*
X118799500Y-128121153D01*
X101750500Y-128121153D01*
X101750500Y-126921153D01*
X110699500Y-126921153D01*
X110699500Y-127078846D01*
X110730261Y-127233489D01*
X110730264Y-127233501D01*
X110790602Y-127379172D01*
X110790609Y-127379185D01*
X110878210Y-127510288D01*
X110878213Y-127510292D01*
X110989707Y-127621786D01*
X110989711Y-127621789D01*
X111120814Y-127709390D01*
X111120827Y-127709397D01*
X111266498Y-127769735D01*
X111266503Y-127769737D01*
X111421153Y-127800499D01*
X111421156Y-127800500D01*
X111421158Y-127800500D01*
X111578844Y-127800500D01*
X111578845Y-127800499D01*
X111733497Y-127769737D01*
X111879179Y-127709394D01*
X112010289Y-127621789D01*
X112121789Y-127510289D01*
X112209394Y-127379179D01*
X112269737Y-127233497D01*
X112300500Y-127078842D01*
X112300500Y-126921158D01*
X112300500Y-126921155D01*
X112300499Y-126921153D01*
X112269738Y-126766510D01*
X112269737Y-126766503D01*
X112269735Y-126766498D01*
X112209397Y-126620827D01*
X112209390Y-126620814D01*
X112121789Y-126489711D01*
X112121786Y-126489707D01*
X112010292Y-126378213D01*
X112010288Y-126378210D01*
X111879185Y-126290609D01*
X111879172Y-126290602D01*
X111733501Y-126230264D01*
X111733489Y-126230261D01*
X111578845Y-126199500D01*
X111578842Y-126199500D01*
X111421158Y-126199500D01*
X111421155Y-126199500D01*
X111266510Y-126230261D01*
X111266498Y-126230264D01*
X111120827Y-126290602D01*
X111120814Y-126290609D01*
X110989711Y-126378210D01*
X110989707Y-126378213D01*
X110878213Y-126489707D01*
X110878210Y-126489711D01*
X110790609Y-126620814D01*
X110790602Y-126620827D01*
X110730264Y-126766498D01*
X110730261Y-126766510D01*
X110699500Y-126921153D01*
X101750500Y-126921153D01*
X101750500Y-123127577D01*
X112550975Y-123127577D01*
X112656236Y-123171178D01*
X112656240Y-123171179D01*
X112801126Y-123199999D01*
X112801129Y-123200000D01*
X112948871Y-123200000D01*
X112948873Y-123199999D01*
X113093760Y-123171179D01*
X113093775Y-123171175D01*
X113199024Y-123127578D01*
X113199024Y-123127577D01*
X112875001Y-122803554D01*
X112875000Y-122803554D01*
X112550975Y-123127577D01*
X101750500Y-123127577D01*
X101750500Y-122177577D01*
X111975975Y-122177577D01*
X112056127Y-122210778D01*
X112110530Y-122254620D01*
X112132594Y-122320914D01*
X112130291Y-122349527D01*
X112125000Y-122376129D01*
X112125000Y-122523873D01*
X112153820Y-122668759D01*
X112153822Y-122668767D01*
X112197421Y-122774024D01*
X112610542Y-122360904D01*
X112671865Y-122327419D01*
X112741557Y-122332403D01*
X112785904Y-122360904D01*
X112804289Y-122379289D01*
X112790224Y-122393355D01*
X112775000Y-122430109D01*
X112775000Y-122469891D01*
X112790224Y-122506645D01*
X112818355Y-122534776D01*
X112855109Y-122550000D01*
X112894891Y-122550000D01*
X112931645Y-122534776D01*
X112959776Y-122506645D01*
X112975000Y-122469891D01*
X112975000Y-122430109D01*
X112959776Y-122393355D01*
X112945709Y-122379288D01*
X112964094Y-122360904D01*
X113025417Y-122327419D01*
X113095109Y-122332403D01*
X113139457Y-122360904D01*
X113552577Y-122774024D01*
X113574477Y-122721153D01*
X114199500Y-122721153D01*
X114199500Y-122878846D01*
X114230261Y-123033489D01*
X114230264Y-123033501D01*
X114290602Y-123179172D01*
X114290609Y-123179185D01*
X114378210Y-123310288D01*
X114378213Y-123310292D01*
X114489707Y-123421786D01*
X114489711Y-123421789D01*
X114620814Y-123509390D01*
X114620827Y-123509397D01*
X114766498Y-123569735D01*
X114766503Y-123569737D01*
X114921153Y-123600499D01*
X114921156Y-123600500D01*
X114921158Y-123600500D01*
X115078844Y-123600500D01*
X115078845Y-123600499D01*
X115233497Y-123569737D01*
X115379179Y-123509394D01*
X115510289Y-123421789D01*
X115621789Y-123310289D01*
X115709394Y-123179179D01*
X115769737Y-123033497D01*
X115800500Y-122878842D01*
X115800500Y-122721158D01*
X115800500Y-122721155D01*
X115800499Y-122721153D01*
X115769737Y-122566503D01*
X115762901Y-122550000D01*
X115750952Y-122521153D01*
X116599500Y-122521153D01*
X116599500Y-122678846D01*
X116630261Y-122833489D01*
X116630264Y-122833501D01*
X116690602Y-122979172D01*
X116690609Y-122979185D01*
X116778210Y-123110288D01*
X116778213Y-123110292D01*
X116889707Y-123221786D01*
X116889711Y-123221789D01*
X117020814Y-123309390D01*
X117020827Y-123309397D01*
X117166498Y-123369735D01*
X117166503Y-123369737D01*
X117321153Y-123400499D01*
X117321156Y-123400500D01*
X117321158Y-123400500D01*
X117478844Y-123400500D01*
X117478845Y-123400499D01*
X117633497Y-123369737D01*
X117779179Y-123309394D01*
X117910289Y-123221789D01*
X118021789Y-123110289D01*
X118109394Y-122979179D01*
X118169737Y-122833497D01*
X118200500Y-122678842D01*
X118200500Y-122521158D01*
X118200500Y-122521155D01*
X118200499Y-122521153D01*
X118180543Y-122420827D01*
X118169737Y-122366503D01*
X118162901Y-122350000D01*
X118109397Y-122220827D01*
X118109390Y-122220814D01*
X118021789Y-122089711D01*
X118021786Y-122089707D01*
X117910292Y-121978213D01*
X117910288Y-121978210D01*
X117779185Y-121890609D01*
X117779172Y-121890602D01*
X117633501Y-121830264D01*
X117633489Y-121830261D01*
X117478845Y-121799500D01*
X117478842Y-121799500D01*
X117321158Y-121799500D01*
X117321155Y-121799500D01*
X117166510Y-121830261D01*
X117166498Y-121830264D01*
X117020827Y-121890602D01*
X117020814Y-121890609D01*
X116889711Y-121978210D01*
X116889707Y-121978213D01*
X116778213Y-122089707D01*
X116778210Y-122089711D01*
X116690609Y-122220814D01*
X116690602Y-122220827D01*
X116630264Y-122366498D01*
X116630261Y-122366510D01*
X116599500Y-122521153D01*
X115750952Y-122521153D01*
X115709397Y-122420827D01*
X115709390Y-122420814D01*
X115621789Y-122289711D01*
X115621786Y-122289707D01*
X115510292Y-122178213D01*
X115510288Y-122178210D01*
X115379185Y-122090609D01*
X115379172Y-122090602D01*
X115233501Y-122030264D01*
X115233489Y-122030261D01*
X115078845Y-121999500D01*
X115078842Y-121999500D01*
X114921158Y-121999500D01*
X114921155Y-121999500D01*
X114766510Y-122030261D01*
X114766498Y-122030264D01*
X114620827Y-122090602D01*
X114620814Y-122090609D01*
X114489711Y-122178210D01*
X114489707Y-122178213D01*
X114378213Y-122289707D01*
X114378210Y-122289711D01*
X114290609Y-122420814D01*
X114290602Y-122420827D01*
X114230264Y-122566498D01*
X114230261Y-122566510D01*
X114199500Y-122721153D01*
X113574477Y-122721153D01*
X113596178Y-122668764D01*
X113596179Y-122668760D01*
X113624999Y-122523873D01*
X113625000Y-122523871D01*
X113625000Y-122376129D01*
X113619709Y-122349532D01*
X113625936Y-122279940D01*
X113668798Y-122224762D01*
X113693872Y-122210778D01*
X113774024Y-122177577D01*
X113450000Y-121853554D01*
X113092204Y-122211350D01*
X113030881Y-122244835D01*
X112961189Y-122239851D01*
X112916842Y-122211350D01*
X112875000Y-122169508D01*
X112833158Y-122211350D01*
X112771834Y-122244834D01*
X112702143Y-122239849D01*
X112657796Y-122211349D01*
X112300001Y-121853554D01*
X112300000Y-121853554D01*
X111975975Y-122177577D01*
X101750500Y-122177577D01*
X101750500Y-121426126D01*
X111550000Y-121426126D01*
X111550000Y-121573873D01*
X111578820Y-121718759D01*
X111578822Y-121718767D01*
X111622421Y-121824024D01*
X111946446Y-121500000D01*
X111946446Y-121499999D01*
X111926556Y-121480109D01*
X112200000Y-121480109D01*
X112200000Y-121519891D01*
X112215224Y-121556645D01*
X112243355Y-121584776D01*
X112280109Y-121600000D01*
X112319891Y-121600000D01*
X112356645Y-121584776D01*
X112384776Y-121556645D01*
X112400000Y-121519891D01*
X112400000Y-121500000D01*
X112653554Y-121500000D01*
X112875000Y-121721446D01*
X113096446Y-121500000D01*
X113076555Y-121480109D01*
X113350000Y-121480109D01*
X113350000Y-121519891D01*
X113365224Y-121556645D01*
X113393355Y-121584776D01*
X113430109Y-121600000D01*
X113469891Y-121600000D01*
X113506645Y-121584776D01*
X113534776Y-121556645D01*
X113550000Y-121519891D01*
X113550000Y-121499999D01*
X113803554Y-121499999D01*
X113803554Y-121500001D01*
X114127577Y-121824024D01*
X114127578Y-121824024D01*
X114171175Y-121718775D01*
X114171179Y-121718760D01*
X114199999Y-121573873D01*
X114200000Y-121573871D01*
X114200000Y-121426128D01*
X114199999Y-121426126D01*
X114171179Y-121281240D01*
X114171178Y-121281236D01*
X114127577Y-121175975D01*
X113803554Y-121499999D01*
X113550000Y-121499999D01*
X113550000Y-121480109D01*
X113534776Y-121443355D01*
X113506645Y-121415224D01*
X113469891Y-121400000D01*
X113430109Y-121400000D01*
X113393355Y-121415224D01*
X113365224Y-121443355D01*
X113350000Y-121480109D01*
X113076555Y-121480109D01*
X112875000Y-121278554D01*
X112653554Y-121500000D01*
X112400000Y-121500000D01*
X112400000Y-121480109D01*
X112384776Y-121443355D01*
X112356645Y-121415224D01*
X112319891Y-121400000D01*
X112280109Y-121400000D01*
X112243355Y-121415224D01*
X112215224Y-121443355D01*
X112200000Y-121480109D01*
X111926556Y-121480109D01*
X111622421Y-121175974D01*
X111622420Y-121175974D01*
X111578823Y-121281228D01*
X111578820Y-121281240D01*
X111550000Y-121426126D01*
X101750500Y-121426126D01*
X101750500Y-120822421D01*
X111975974Y-120822421D01*
X112299999Y-121146446D01*
X112657796Y-120788650D01*
X112719119Y-120755165D01*
X112788811Y-120760149D01*
X112833158Y-120788650D01*
X112875000Y-120830492D01*
X112916842Y-120788650D01*
X112978165Y-120755165D01*
X113047857Y-120760149D01*
X113092204Y-120788650D01*
X113450000Y-121146446D01*
X113450001Y-121146446D01*
X113774024Y-120822421D01*
X113693873Y-120789221D01*
X113639470Y-120745380D01*
X113617405Y-120679086D01*
X113619709Y-120650467D01*
X113625000Y-120623869D01*
X113625000Y-120476128D01*
X113624999Y-120476126D01*
X113596179Y-120331240D01*
X113596178Y-120331236D01*
X113552576Y-120225974D01*
X113139457Y-120639095D01*
X113078134Y-120672580D01*
X113008442Y-120667596D01*
X112964095Y-120639095D01*
X112945710Y-120620710D01*
X112959776Y-120606645D01*
X112975000Y-120569891D01*
X112975000Y-120530109D01*
X112959776Y-120493355D01*
X112931645Y-120465224D01*
X112894891Y-120450000D01*
X112855109Y-120450000D01*
X112818355Y-120465224D01*
X112790224Y-120493355D01*
X112775000Y-120530109D01*
X112775000Y-120569891D01*
X112790224Y-120606645D01*
X112804289Y-120620710D01*
X112785904Y-120639096D01*
X112724581Y-120672580D01*
X112654889Y-120667596D01*
X112610542Y-120639095D01*
X112197421Y-120225974D01*
X112197420Y-120225974D01*
X112153823Y-120331228D01*
X112153820Y-120331240D01*
X112125000Y-120476126D01*
X112125000Y-120623869D01*
X112130291Y-120650471D01*
X112124062Y-120720062D01*
X112081198Y-120775239D01*
X112056126Y-120789221D01*
X111975974Y-120822421D01*
X101750500Y-120822421D01*
X101750500Y-119872420D01*
X112550974Y-119872420D01*
X112550974Y-119872421D01*
X112875000Y-120196446D01*
X112875001Y-120196446D01*
X113199024Y-119872421D01*
X113093767Y-119828822D01*
X113093759Y-119828820D01*
X112948872Y-119800000D01*
X112801128Y-119800000D01*
X112656240Y-119828820D01*
X112656228Y-119828823D01*
X112550974Y-119872420D01*
X101750500Y-119872420D01*
X101750500Y-109710817D01*
X107654500Y-109710817D01*
X107654500Y-109849182D01*
X107690312Y-109982835D01*
X107690313Y-109982838D01*
X107759492Y-110102661D01*
X107759494Y-110102664D01*
X107759495Y-110102665D01*
X107857335Y-110200505D01*
X107977164Y-110269688D01*
X108110817Y-110305500D01*
X108110819Y-110305500D01*
X108249181Y-110305500D01*
X108249183Y-110305500D01*
X108382836Y-110269688D01*
X108502665Y-110200505D01*
X108600505Y-110102665D01*
X108669688Y-109982836D01*
X108705500Y-109849183D01*
X108705500Y-109710817D01*
X108669688Y-109577164D01*
X108600505Y-109457335D01*
X108502665Y-109359495D01*
X108502664Y-109359494D01*
X108502661Y-109359492D01*
X108382838Y-109290313D01*
X108382837Y-109290312D01*
X108382836Y-109290312D01*
X108249183Y-109254500D01*
X108110817Y-109254500D01*
X107977164Y-109290312D01*
X107977161Y-109290313D01*
X107857338Y-109359492D01*
X107857333Y-109359496D01*
X107759496Y-109457333D01*
X107759492Y-109457338D01*
X107690313Y-109577161D01*
X107690312Y-109577164D01*
X107654500Y-109710817D01*
X101750500Y-109710817D01*
X101750500Y-106589331D01*
X115187927Y-106589331D01*
X115187927Y-106747024D01*
X115218688Y-106901667D01*
X115218691Y-106901679D01*
X115279029Y-107047350D01*
X115279036Y-107047363D01*
X115366637Y-107178466D01*
X115366640Y-107178470D01*
X115478134Y-107289964D01*
X115478138Y-107289967D01*
X115609241Y-107377568D01*
X115609254Y-107377575D01*
X115754925Y-107437913D01*
X115754930Y-107437915D01*
X115909580Y-107468677D01*
X115909583Y-107468678D01*
X115909585Y-107468678D01*
X116067271Y-107468678D01*
X116067272Y-107468677D01*
X116221924Y-107437915D01*
X116367606Y-107377572D01*
X116498716Y-107289967D01*
X116610216Y-107178467D01*
X116697821Y-107047357D01*
X116758164Y-106901675D01*
X116788927Y-106747020D01*
X116788927Y-106589336D01*
X116788927Y-106589333D01*
X116788926Y-106589331D01*
X116767885Y-106483552D01*
X116758164Y-106434681D01*
X116758162Y-106434676D01*
X116697824Y-106289005D01*
X116697817Y-106288992D01*
X116610216Y-106157889D01*
X116610213Y-106157885D01*
X116498719Y-106046391D01*
X116498715Y-106046388D01*
X116367612Y-105958787D01*
X116367599Y-105958780D01*
X116221928Y-105898442D01*
X116221916Y-105898439D01*
X116067272Y-105867678D01*
X116067269Y-105867678D01*
X115909585Y-105867678D01*
X115909582Y-105867678D01*
X115754937Y-105898439D01*
X115754925Y-105898442D01*
X115609254Y-105958780D01*
X115609241Y-105958787D01*
X115478138Y-106046388D01*
X115478134Y-106046391D01*
X115366640Y-106157885D01*
X115366637Y-106157889D01*
X115279036Y-106288992D01*
X115279029Y-106289005D01*
X115218691Y-106434676D01*
X115218688Y-106434688D01*
X115187927Y-106589331D01*
X101750500Y-106589331D01*
X101750500Y-105671208D01*
X193192373Y-105671208D01*
X193192373Y-105828901D01*
X193223134Y-105983544D01*
X193223137Y-105983556D01*
X193283475Y-106129227D01*
X193283482Y-106129240D01*
X193371083Y-106260343D01*
X193371086Y-106260347D01*
X193482580Y-106371841D01*
X193482584Y-106371844D01*
X193613687Y-106459445D01*
X193613700Y-106459452D01*
X193759371Y-106519790D01*
X193759376Y-106519792D01*
X193914026Y-106550554D01*
X193914029Y-106550555D01*
X193914031Y-106550555D01*
X194071717Y-106550555D01*
X194071718Y-106550554D01*
X194226370Y-106519792D01*
X194372052Y-106459449D01*
X194503162Y-106371844D01*
X194614662Y-106260344D01*
X194674221Y-106171208D01*
X195706627Y-106171208D01*
X195706627Y-106328901D01*
X195737388Y-106483544D01*
X195737391Y-106483556D01*
X195797729Y-106629227D01*
X195797736Y-106629240D01*
X195885337Y-106760343D01*
X195885340Y-106760347D01*
X195996834Y-106871841D01*
X195996838Y-106871844D01*
X196127941Y-106959445D01*
X196127954Y-106959452D01*
X196273625Y-107019790D01*
X196273630Y-107019792D01*
X196412208Y-107047357D01*
X196428280Y-107050554D01*
X196428283Y-107050555D01*
X196428285Y-107050555D01*
X196585971Y-107050555D01*
X196585972Y-107050554D01*
X196740624Y-107019792D01*
X196886306Y-106959449D01*
X197017416Y-106871844D01*
X197128916Y-106760344D01*
X197216521Y-106629234D01*
X197276864Y-106483552D01*
X197307627Y-106328897D01*
X197307627Y-106171213D01*
X197307627Y-106171210D01*
X197307626Y-106171208D01*
X197282798Y-106046391D01*
X197276864Y-106016558D01*
X197252935Y-105958787D01*
X197216524Y-105870882D01*
X197216517Y-105870869D01*
X197128916Y-105739766D01*
X197128913Y-105739762D01*
X197017419Y-105628268D01*
X197017415Y-105628265D01*
X196886312Y-105540664D01*
X196886299Y-105540657D01*
X196740628Y-105480319D01*
X196740616Y-105480316D01*
X196585972Y-105449555D01*
X196585969Y-105449555D01*
X196428285Y-105449555D01*
X196428282Y-105449555D01*
X196273637Y-105480316D01*
X196273625Y-105480319D01*
X196127954Y-105540657D01*
X196127941Y-105540664D01*
X195996838Y-105628265D01*
X195996834Y-105628268D01*
X195885340Y-105739762D01*
X195885337Y-105739766D01*
X195797736Y-105870869D01*
X195797729Y-105870882D01*
X195737391Y-106016553D01*
X195737388Y-106016565D01*
X195706627Y-106171208D01*
X194674221Y-106171208D01*
X194702267Y-106129234D01*
X194762610Y-105983552D01*
X194793373Y-105828897D01*
X194793373Y-105671213D01*
X194793373Y-105671210D01*
X194793372Y-105671208D01*
X194767404Y-105540661D01*
X194762610Y-105516558D01*
X194760013Y-105510288D01*
X194702270Y-105370882D01*
X194702263Y-105370869D01*
X194614662Y-105239766D01*
X194614659Y-105239762D01*
X194503165Y-105128268D01*
X194503161Y-105128265D01*
X194372058Y-105040664D01*
X194372045Y-105040657D01*
X194226374Y-104980319D01*
X194226362Y-104980316D01*
X194071718Y-104949555D01*
X194071715Y-104949555D01*
X193914031Y-104949555D01*
X193914028Y-104949555D01*
X193759383Y-104980316D01*
X193759371Y-104980319D01*
X193613700Y-105040657D01*
X193613687Y-105040664D01*
X193482584Y-105128265D01*
X193482580Y-105128268D01*
X193371086Y-105239762D01*
X193371083Y-105239766D01*
X193283482Y-105370869D01*
X193283475Y-105370882D01*
X193223137Y-105516553D01*
X193223134Y-105516565D01*
X193192373Y-105671208D01*
X101750500Y-105671208D01*
X101750500Y-103930817D01*
X107654500Y-103930817D01*
X107654500Y-104069183D01*
X107670578Y-104129185D01*
X107690312Y-104202835D01*
X107690313Y-104202838D01*
X107759492Y-104322661D01*
X107759494Y-104322664D01*
X107759495Y-104322665D01*
X107857335Y-104420505D01*
X107977164Y-104489688D01*
X108110817Y-104525500D01*
X108110819Y-104525500D01*
X108249181Y-104525500D01*
X108249183Y-104525500D01*
X108382836Y-104489688D01*
X108502665Y-104420505D01*
X108600505Y-104322665D01*
X108669688Y-104202836D01*
X108705500Y-104069183D01*
X108705500Y-103930817D01*
X108669688Y-103797164D01*
X108600505Y-103677335D01*
X108502665Y-103579495D01*
X108502664Y-103579494D01*
X108502661Y-103579492D01*
X108382838Y-103510313D01*
X108382837Y-103510312D01*
X108382836Y-103510312D01*
X108249183Y-103474500D01*
X108110817Y-103474500D01*
X107977164Y-103510312D01*
X107977161Y-103510313D01*
X107857338Y-103579492D01*
X107857333Y-103579496D01*
X107759496Y-103677333D01*
X107759492Y-103677338D01*
X107690313Y-103797161D01*
X107690312Y-103797164D01*
X107654500Y-103930817D01*
X101750500Y-103930817D01*
X101750500Y-102321153D01*
X168399500Y-102321153D01*
X168399500Y-102478846D01*
X168430261Y-102633489D01*
X168430264Y-102633501D01*
X168490602Y-102779172D01*
X168490609Y-102779185D01*
X168578210Y-102910288D01*
X168578213Y-102910292D01*
X168689707Y-103021786D01*
X168689711Y-103021789D01*
X168820814Y-103109390D01*
X168820827Y-103109397D01*
X168866254Y-103128213D01*
X168966503Y-103169737D01*
X169116131Y-103199500D01*
X169121153Y-103200499D01*
X169121156Y-103200500D01*
X169121158Y-103200500D01*
X169278844Y-103200500D01*
X169278845Y-103200499D01*
X169426378Y-103171153D01*
X196449500Y-103171153D01*
X196449500Y-103328846D01*
X196480261Y-103483489D01*
X196480264Y-103483501D01*
X196540602Y-103629172D01*
X196540609Y-103629185D01*
X196628210Y-103760288D01*
X196628213Y-103760292D01*
X196739707Y-103871786D01*
X196739711Y-103871789D01*
X196870814Y-103959390D01*
X196870816Y-103959391D01*
X196870821Y-103959394D01*
X196943426Y-103989467D01*
X196997826Y-104033306D01*
X197010532Y-104056574D01*
X197040604Y-104129176D01*
X197040609Y-104129185D01*
X197128210Y-104260288D01*
X197128213Y-104260292D01*
X197239707Y-104371786D01*
X197239711Y-104371789D01*
X197370814Y-104459390D01*
X197370827Y-104459397D01*
X197493693Y-104510289D01*
X197516503Y-104519737D01*
X197671153Y-104550499D01*
X197671156Y-104550500D01*
X197671158Y-104550500D01*
X197828844Y-104550500D01*
X197828845Y-104550499D01*
X197983497Y-104519737D01*
X198128177Y-104459808D01*
X198197646Y-104452340D01*
X198260125Y-104483615D01*
X198295777Y-104543704D01*
X198293283Y-104613529D01*
X198290190Y-104621822D01*
X198230264Y-104766498D01*
X198230261Y-104766510D01*
X198199500Y-104921153D01*
X198199500Y-105078846D01*
X198230261Y-105233489D01*
X198230264Y-105233501D01*
X198290602Y-105379172D01*
X198290609Y-105379185D01*
X198378210Y-105510288D01*
X198378213Y-105510292D01*
X198489707Y-105621786D01*
X198489711Y-105621789D01*
X198620814Y-105709390D01*
X198620827Y-105709397D01*
X198766498Y-105769735D01*
X198766503Y-105769737D01*
X198921153Y-105800499D01*
X198921156Y-105800500D01*
X198921158Y-105800500D01*
X199078844Y-105800500D01*
X199078845Y-105800499D01*
X199233497Y-105769737D01*
X199379179Y-105709394D01*
X199510289Y-105621789D01*
X199621789Y-105510289D01*
X199709394Y-105379179D01*
X199769737Y-105233497D01*
X199800500Y-105078842D01*
X199800500Y-104921158D01*
X199800500Y-104921155D01*
X199800499Y-104921153D01*
X199769738Y-104766510D01*
X199769737Y-104766503D01*
X199711238Y-104625272D01*
X199703769Y-104555803D01*
X199722694Y-104508933D01*
X199809394Y-104379179D01*
X199869737Y-104233497D01*
X199900500Y-104078842D01*
X199900500Y-103921158D01*
X199900500Y-103921155D01*
X199900499Y-103921153D01*
X199869738Y-103766510D01*
X199869737Y-103766503D01*
X199832802Y-103677333D01*
X199809397Y-103620827D01*
X199809390Y-103620814D01*
X199721789Y-103489711D01*
X199721786Y-103489707D01*
X199610292Y-103378213D01*
X199610288Y-103378210D01*
X199479185Y-103290609D01*
X199479172Y-103290602D01*
X199333501Y-103230264D01*
X199333489Y-103230261D01*
X199178845Y-103199500D01*
X199178842Y-103199500D01*
X199021158Y-103199500D01*
X199021155Y-103199500D01*
X198866510Y-103230261D01*
X198866498Y-103230264D01*
X198720827Y-103290602D01*
X198720809Y-103290612D01*
X198606132Y-103367237D01*
X198539455Y-103388115D01*
X198472075Y-103369630D01*
X198434140Y-103333025D01*
X198371792Y-103239715D01*
X198371786Y-103239707D01*
X198260292Y-103128213D01*
X198260288Y-103128210D01*
X198129185Y-103040609D01*
X198129176Y-103040604D01*
X198056574Y-103010532D01*
X198002171Y-102966691D01*
X197989470Y-102943432D01*
X197959394Y-102870821D01*
X197959391Y-102870816D01*
X197959390Y-102870814D01*
X197871789Y-102739711D01*
X197871786Y-102739707D01*
X197760292Y-102628213D01*
X197760288Y-102628210D01*
X197629185Y-102540609D01*
X197629172Y-102540602D01*
X197483501Y-102480264D01*
X197483489Y-102480261D01*
X197328845Y-102449500D01*
X197328842Y-102449500D01*
X197171158Y-102449500D01*
X197171155Y-102449500D01*
X197016510Y-102480261D01*
X197016498Y-102480264D01*
X196870827Y-102540602D01*
X196870814Y-102540609D01*
X196739711Y-102628210D01*
X196739707Y-102628213D01*
X196628213Y-102739707D01*
X196628210Y-102739711D01*
X196540609Y-102870814D01*
X196540602Y-102870827D01*
X196480264Y-103016498D01*
X196480261Y-103016510D01*
X196449500Y-103171153D01*
X169426378Y-103171153D01*
X169433497Y-103169737D01*
X169579179Y-103109394D01*
X169579185Y-103109390D01*
X169650164Y-103061964D01*
X169682130Y-103040604D01*
X169710289Y-103021789D01*
X169821789Y-102910289D01*
X169909394Y-102779179D01*
X169969737Y-102633497D01*
X170000500Y-102478842D01*
X170000500Y-102321158D01*
X170000500Y-102321155D01*
X170000499Y-102321153D01*
X169969738Y-102166510D01*
X169969737Y-102166503D01*
X169969735Y-102166498D01*
X169909397Y-102020827D01*
X169909390Y-102020814D01*
X169821789Y-101889711D01*
X169821786Y-101889707D01*
X169710292Y-101778213D01*
X169710288Y-101778210D01*
X169579185Y-101690609D01*
X169579172Y-101690602D01*
X169433501Y-101630264D01*
X169433489Y-101630261D01*
X169278845Y-101599500D01*
X169278842Y-101599500D01*
X169121158Y-101599500D01*
X169121155Y-101599500D01*
X168966510Y-101630261D01*
X168966498Y-101630264D01*
X168820827Y-101690602D01*
X168820814Y-101690609D01*
X168689711Y-101778210D01*
X168689707Y-101778213D01*
X168578213Y-101889707D01*
X168578210Y-101889711D01*
X168490609Y-102020814D01*
X168490602Y-102020827D01*
X168430264Y-102166498D01*
X168430261Y-102166510D01*
X168399500Y-102321153D01*
X101750500Y-102321153D01*
X101750500Y-97521153D01*
X182739500Y-97521153D01*
X182739500Y-97678846D01*
X182770261Y-97833489D01*
X182770264Y-97833501D01*
X182830602Y-97979172D01*
X182830609Y-97979185D01*
X182918210Y-98110288D01*
X182918213Y-98110292D01*
X183029707Y-98221786D01*
X183029711Y-98221789D01*
X183160814Y-98309390D01*
X183160827Y-98309397D01*
X183306498Y-98369735D01*
X183306503Y-98369737D01*
X183461153Y-98400499D01*
X183461156Y-98400500D01*
X183461158Y-98400500D01*
X183618844Y-98400500D01*
X183618845Y-98400499D01*
X183773497Y-98369737D01*
X183919179Y-98309394D01*
X184050289Y-98221789D01*
X184161789Y-98110289D01*
X184249394Y-97979179D01*
X184309737Y-97833497D01*
X184340500Y-97678842D01*
X184340500Y-97521158D01*
X184340500Y-97521155D01*
X184340499Y-97521153D01*
X184309738Y-97366510D01*
X184309737Y-97366503D01*
X184309735Y-97366498D01*
X184249397Y-97220827D01*
X184249390Y-97220814D01*
X184161789Y-97089711D01*
X184161786Y-97089707D01*
X184050292Y-96978213D01*
X184050288Y-96978210D01*
X183919185Y-96890609D01*
X183919172Y-96890602D01*
X183773501Y-96830264D01*
X183773489Y-96830261D01*
X183618845Y-96799500D01*
X183618842Y-96799500D01*
X183461158Y-96799500D01*
X183461155Y-96799500D01*
X183306510Y-96830261D01*
X183306498Y-96830264D01*
X183160827Y-96890602D01*
X183160814Y-96890609D01*
X183029711Y-96978210D01*
X183029707Y-96978213D01*
X182918213Y-97089707D01*
X182918210Y-97089711D01*
X182830609Y-97220814D01*
X182830602Y-97220827D01*
X182770264Y-97366498D01*
X182770261Y-97366510D01*
X182739500Y-97521153D01*
X101750500Y-97521153D01*
X101750500Y-95421153D01*
X197949500Y-95421153D01*
X197949500Y-95578846D01*
X197980261Y-95733489D01*
X197980264Y-95733501D01*
X198040602Y-95879172D01*
X198040609Y-95879185D01*
X198128210Y-96010288D01*
X198128213Y-96010292D01*
X198239707Y-96121786D01*
X198239711Y-96121789D01*
X198370814Y-96209390D01*
X198370827Y-96209397D01*
X198516498Y-96269735D01*
X198516503Y-96269737D01*
X198671153Y-96300499D01*
X198671156Y-96300500D01*
X198671158Y-96300500D01*
X198828844Y-96300500D01*
X198828845Y-96300499D01*
X198983497Y-96269737D01*
X199129179Y-96209394D01*
X199260289Y-96121789D01*
X199371789Y-96010289D01*
X199459394Y-95879179D01*
X199519737Y-95733497D01*
X199550500Y-95578842D01*
X199550500Y-95421158D01*
X199550500Y-95421155D01*
X199550499Y-95421153D01*
X199519738Y-95266510D01*
X199519737Y-95266503D01*
X199519735Y-95266498D01*
X199459397Y-95120827D01*
X199459390Y-95120814D01*
X199371789Y-94989711D01*
X199371786Y-94989707D01*
X199260292Y-94878213D01*
X199260288Y-94878210D01*
X199129185Y-94790609D01*
X199129172Y-94790602D01*
X198983501Y-94730264D01*
X198983489Y-94730261D01*
X198828845Y-94699500D01*
X198828842Y-94699500D01*
X198671158Y-94699500D01*
X198671155Y-94699500D01*
X198516510Y-94730261D01*
X198516498Y-94730264D01*
X198370827Y-94790602D01*
X198370814Y-94790609D01*
X198239711Y-94878210D01*
X198239707Y-94878213D01*
X198128213Y-94989707D01*
X198128210Y-94989711D01*
X198040609Y-95120814D01*
X198040602Y-95120827D01*
X197980264Y-95266498D01*
X197980261Y-95266510D01*
X197949500Y-95421153D01*
X101750500Y-95421153D01*
X101750500Y-79921153D01*
X159699500Y-79921153D01*
X159699500Y-80078846D01*
X159730261Y-80233489D01*
X159730264Y-80233501D01*
X159790602Y-80379172D01*
X159790609Y-80379185D01*
X159878210Y-80510288D01*
X159878213Y-80510292D01*
X159989707Y-80621786D01*
X159989711Y-80621789D01*
X160120814Y-80709390D01*
X160120827Y-80709397D01*
X160266498Y-80769735D01*
X160266503Y-80769737D01*
X160421153Y-80800499D01*
X160421156Y-80800500D01*
X160421158Y-80800500D01*
X160578844Y-80800500D01*
X160578845Y-80800499D01*
X160733497Y-80769737D01*
X160879179Y-80709394D01*
X161010289Y-80621789D01*
X161121789Y-80510289D01*
X161209394Y-80379179D01*
X161269737Y-80233497D01*
X161300500Y-80078842D01*
X161300500Y-79921158D01*
X161300500Y-79921155D01*
X161300499Y-79921153D01*
X161269738Y-79766510D01*
X161269737Y-79766503D01*
X161269735Y-79766498D01*
X161209397Y-79620827D01*
X161209390Y-79620814D01*
X161121789Y-79489711D01*
X161121786Y-79489707D01*
X161010292Y-79378213D01*
X161010288Y-79378210D01*
X160879185Y-79290609D01*
X160879172Y-79290602D01*
X160733501Y-79230264D01*
X160733489Y-79230261D01*
X160578845Y-79199500D01*
X160578842Y-79199500D01*
X160421158Y-79199500D01*
X160421155Y-79199500D01*
X160266510Y-79230261D01*
X160266498Y-79230264D01*
X160120827Y-79290602D01*
X160120814Y-79290609D01*
X159989711Y-79378210D01*
X159989707Y-79378213D01*
X159878213Y-79489707D01*
X159878210Y-79489711D01*
X159790609Y-79620814D01*
X159790602Y-79620827D01*
X159730264Y-79766498D01*
X159730261Y-79766510D01*
X159699500Y-79921153D01*
X101750500Y-79921153D01*
X101750500Y-77321153D01*
X144999500Y-77321153D01*
X144999500Y-77478846D01*
X145030261Y-77633489D01*
X145030264Y-77633501D01*
X145090602Y-77779172D01*
X145090609Y-77779185D01*
X145178210Y-77910288D01*
X145178213Y-77910292D01*
X145289707Y-78021786D01*
X145289711Y-78021789D01*
X145420814Y-78109390D01*
X145420827Y-78109397D01*
X145566498Y-78169735D01*
X145566503Y-78169737D01*
X145721153Y-78200499D01*
X145721156Y-78200500D01*
X145721158Y-78200500D01*
X145878844Y-78200500D01*
X145878845Y-78200499D01*
X146033497Y-78169737D01*
X146179179Y-78109394D01*
X146310289Y-78021789D01*
X146421789Y-77910289D01*
X146509394Y-77779179D01*
X146569737Y-77633497D01*
X146600500Y-77478842D01*
X146600500Y-77421153D01*
X158349500Y-77421153D01*
X158349500Y-77578846D01*
X158380261Y-77733489D01*
X158380264Y-77733501D01*
X158440602Y-77879172D01*
X158440609Y-77879185D01*
X158528210Y-78010288D01*
X158528213Y-78010292D01*
X158639707Y-78121786D01*
X158639711Y-78121789D01*
X158770814Y-78209390D01*
X158770827Y-78209397D01*
X158916498Y-78269735D01*
X158916503Y-78269737D01*
X159071153Y-78300499D01*
X159071156Y-78300500D01*
X159071158Y-78300500D01*
X159228844Y-78300500D01*
X159228845Y-78300499D01*
X159383497Y-78269737D01*
X159529179Y-78209394D01*
X159660289Y-78121789D01*
X159771789Y-78010289D01*
X159859394Y-77879179D01*
X159919737Y-77733497D01*
X159950500Y-77578842D01*
X159950500Y-77421158D01*
X159950500Y-77421155D01*
X159950499Y-77421153D01*
X159919737Y-77266503D01*
X159878314Y-77166498D01*
X159859397Y-77120827D01*
X159859390Y-77120814D01*
X159771789Y-76989711D01*
X159771786Y-76989707D01*
X159660292Y-76878213D01*
X159660288Y-76878210D01*
X159529185Y-76790609D01*
X159529172Y-76790602D01*
X159383501Y-76730264D01*
X159383489Y-76730261D01*
X159228845Y-76699500D01*
X159228842Y-76699500D01*
X159071158Y-76699500D01*
X159071155Y-76699500D01*
X158916510Y-76730261D01*
X158916498Y-76730264D01*
X158770827Y-76790602D01*
X158770814Y-76790609D01*
X158639711Y-76878210D01*
X158639707Y-76878213D01*
X158528213Y-76989707D01*
X158528210Y-76989711D01*
X158440609Y-77120814D01*
X158440602Y-77120827D01*
X158380264Y-77266498D01*
X158380261Y-77266510D01*
X158349500Y-77421153D01*
X146600500Y-77421153D01*
X146600500Y-77321158D01*
X146600500Y-77321155D01*
X146600499Y-77321153D01*
X146569738Y-77166510D01*
X146569737Y-77166503D01*
X146550812Y-77120814D01*
X146509397Y-77020827D01*
X146509390Y-77020814D01*
X146421789Y-76889711D01*
X146421786Y-76889707D01*
X146310292Y-76778213D01*
X146310288Y-76778210D01*
X146179185Y-76690609D01*
X146179172Y-76690602D01*
X146033501Y-76630264D01*
X146033489Y-76630261D01*
X145878845Y-76599500D01*
X145878842Y-76599500D01*
X145721158Y-76599500D01*
X145721155Y-76599500D01*
X145566510Y-76630261D01*
X145566498Y-76630264D01*
X145420827Y-76690602D01*
X145420814Y-76690609D01*
X145289711Y-76778210D01*
X145289707Y-76778213D01*
X145178213Y-76889707D01*
X145178210Y-76889711D01*
X145090609Y-77020814D01*
X145090602Y-77020827D01*
X145030264Y-77166498D01*
X145030261Y-77166510D01*
X144999500Y-77321153D01*
X101750500Y-77321153D01*
X101750500Y-75921153D01*
X153199500Y-75921153D01*
X153199500Y-76078846D01*
X153230261Y-76233489D01*
X153230264Y-76233501D01*
X153290602Y-76379172D01*
X153290609Y-76379185D01*
X153378210Y-76510288D01*
X153378213Y-76510292D01*
X153489707Y-76621786D01*
X153489711Y-76621789D01*
X153620814Y-76709390D01*
X153620827Y-76709397D01*
X153766498Y-76769735D01*
X153766503Y-76769737D01*
X153921153Y-76800499D01*
X153921156Y-76800500D01*
X153921158Y-76800500D01*
X154078844Y-76800500D01*
X154078845Y-76800499D01*
X154233497Y-76769737D01*
X154379179Y-76709394D01*
X154510289Y-76621789D01*
X154621789Y-76510289D01*
X154709394Y-76379179D01*
X154769737Y-76233497D01*
X154800500Y-76078842D01*
X154800500Y-75921158D01*
X154800500Y-75921155D01*
X154800499Y-75921153D01*
X154769738Y-75766510D01*
X154769737Y-75766503D01*
X154769735Y-75766498D01*
X154709397Y-75620827D01*
X154709390Y-75620814D01*
X154621789Y-75489711D01*
X154621786Y-75489707D01*
X154510292Y-75378213D01*
X154510288Y-75378210D01*
X154379185Y-75290609D01*
X154379172Y-75290602D01*
X154233501Y-75230264D01*
X154233489Y-75230261D01*
X154078845Y-75199500D01*
X154078842Y-75199500D01*
X153921158Y-75199500D01*
X153921155Y-75199500D01*
X153766510Y-75230261D01*
X153766498Y-75230264D01*
X153620827Y-75290602D01*
X153620814Y-75290609D01*
X153489711Y-75378210D01*
X153489707Y-75378213D01*
X153378213Y-75489707D01*
X153378210Y-75489711D01*
X153290609Y-75620814D01*
X153290602Y-75620827D01*
X153230264Y-75766498D01*
X153230261Y-75766510D01*
X153199500Y-75921153D01*
X101750500Y-75921153D01*
X101750500Y-70939482D01*
X156412843Y-70939482D01*
X156412843Y-71097175D01*
X156443604Y-71251818D01*
X156443607Y-71251830D01*
X156503945Y-71397501D01*
X156503952Y-71397514D01*
X156591553Y-71528617D01*
X156591556Y-71528621D01*
X156703050Y-71640115D01*
X156703054Y-71640118D01*
X156834157Y-71727719D01*
X156834170Y-71727726D01*
X156979841Y-71788064D01*
X156979846Y-71788066D01*
X157134496Y-71818828D01*
X157134499Y-71818829D01*
X157134501Y-71818829D01*
X157292187Y-71818829D01*
X157292188Y-71818828D01*
X157446840Y-71788066D01*
X157592522Y-71727723D01*
X157723632Y-71640118D01*
X157835132Y-71528618D01*
X157922737Y-71397508D01*
X157983080Y-71251826D01*
X158013843Y-71097171D01*
X158013843Y-70939487D01*
X158013843Y-70939484D01*
X158013842Y-70939482D01*
X157983081Y-70784839D01*
X157983080Y-70784832D01*
X157972914Y-70760288D01*
X157922740Y-70639156D01*
X157922733Y-70639143D01*
X157835132Y-70508040D01*
X157835129Y-70508036D01*
X157723635Y-70396542D01*
X157723631Y-70396539D01*
X157592528Y-70308938D01*
X157592515Y-70308931D01*
X157446844Y-70248593D01*
X157446832Y-70248590D01*
X157292188Y-70217829D01*
X157292185Y-70217829D01*
X157134501Y-70217829D01*
X157134498Y-70217829D01*
X156979853Y-70248590D01*
X156979841Y-70248593D01*
X156834170Y-70308931D01*
X156834157Y-70308938D01*
X156703054Y-70396539D01*
X156703050Y-70396542D01*
X156591556Y-70508036D01*
X156591553Y-70508040D01*
X156503952Y-70639143D01*
X156503945Y-70639156D01*
X156443607Y-70784827D01*
X156443604Y-70784839D01*
X156412843Y-70939482D01*
X101750500Y-70939482D01*
X101750500Y-69647965D01*
X159516519Y-69647965D01*
X159516519Y-69805658D01*
X159547280Y-69960301D01*
X159547283Y-69960313D01*
X159607621Y-70105984D01*
X159607628Y-70105997D01*
X159695229Y-70237100D01*
X159695232Y-70237104D01*
X159806726Y-70348598D01*
X159806730Y-70348601D01*
X159937833Y-70436202D01*
X159937846Y-70436209D01*
X160051992Y-70483489D01*
X160083522Y-70496549D01*
X160238172Y-70527311D01*
X160238175Y-70527312D01*
X160238177Y-70527312D01*
X160395863Y-70527312D01*
X160395864Y-70527311D01*
X160550516Y-70496549D01*
X160696198Y-70436206D01*
X160827308Y-70348601D01*
X160938808Y-70237101D01*
X160982873Y-70171153D01*
X167949500Y-70171153D01*
X167949500Y-70328846D01*
X167980261Y-70483489D01*
X167980264Y-70483501D01*
X168040602Y-70629172D01*
X168040609Y-70629185D01*
X168128210Y-70760288D01*
X168128213Y-70760292D01*
X168239707Y-70871786D01*
X168239711Y-70871789D01*
X168370814Y-70959390D01*
X168370827Y-70959397D01*
X168516498Y-71019735D01*
X168516503Y-71019737D01*
X168671153Y-71050499D01*
X168671156Y-71050500D01*
X168671158Y-71050500D01*
X168828844Y-71050500D01*
X168828845Y-71050499D01*
X168983497Y-71019737D01*
X169129179Y-70959394D01*
X169260289Y-70871789D01*
X169371789Y-70760289D01*
X169459394Y-70629179D01*
X169519737Y-70483497D01*
X169550500Y-70328842D01*
X169550500Y-70171158D01*
X169550500Y-70171155D01*
X169550499Y-70171153D01*
X169519737Y-70016503D01*
X169496458Y-69960301D01*
X169459397Y-69870827D01*
X169459390Y-69870814D01*
X169371789Y-69739711D01*
X169371786Y-69739707D01*
X169260292Y-69628213D01*
X169260288Y-69628210D01*
X169129185Y-69540609D01*
X169129172Y-69540602D01*
X168983501Y-69480264D01*
X168983489Y-69480261D01*
X168828845Y-69449500D01*
X168828842Y-69449500D01*
X168671158Y-69449500D01*
X168671155Y-69449500D01*
X168516510Y-69480261D01*
X168516498Y-69480264D01*
X168370827Y-69540602D01*
X168370814Y-69540609D01*
X168239711Y-69628210D01*
X168239707Y-69628213D01*
X168128213Y-69739707D01*
X168128210Y-69739711D01*
X168040609Y-69870814D01*
X168040602Y-69870827D01*
X167980264Y-70016498D01*
X167980261Y-70016510D01*
X167949500Y-70171153D01*
X160982873Y-70171153D01*
X161026413Y-70105991D01*
X161086756Y-69960309D01*
X161117519Y-69805654D01*
X161117519Y-69647970D01*
X161117519Y-69647967D01*
X161117518Y-69647965D01*
X161093519Y-69527317D01*
X161086756Y-69493315D01*
X161081349Y-69480261D01*
X161026416Y-69347639D01*
X161026409Y-69347626D01*
X160938808Y-69216523D01*
X160938805Y-69216519D01*
X160827311Y-69105025D01*
X160827307Y-69105022D01*
X160696204Y-69017421D01*
X160696191Y-69017414D01*
X160550520Y-68957076D01*
X160550508Y-68957073D01*
X160395864Y-68926312D01*
X160395861Y-68926312D01*
X160238177Y-68926312D01*
X160238174Y-68926312D01*
X160083529Y-68957073D01*
X160083517Y-68957076D01*
X159937846Y-69017414D01*
X159937833Y-69017421D01*
X159806730Y-69105022D01*
X159806726Y-69105025D01*
X159695232Y-69216519D01*
X159695229Y-69216523D01*
X159607628Y-69347626D01*
X159607621Y-69347639D01*
X159547283Y-69493310D01*
X159547280Y-69493322D01*
X159516519Y-69647965D01*
X101750500Y-69647965D01*
X101750500Y-67421153D01*
X144949500Y-67421153D01*
X144949500Y-67578846D01*
X144980261Y-67733489D01*
X144980264Y-67733501D01*
X145040602Y-67879172D01*
X145040609Y-67879185D01*
X145128210Y-68010288D01*
X145128213Y-68010292D01*
X145239707Y-68121786D01*
X145239711Y-68121789D01*
X145370814Y-68209390D01*
X145370827Y-68209397D01*
X145516498Y-68269735D01*
X145516503Y-68269737D01*
X145671153Y-68300499D01*
X145671156Y-68300500D01*
X145671158Y-68300500D01*
X145828844Y-68300500D01*
X145828845Y-68300499D01*
X145983497Y-68269737D01*
X146129179Y-68209394D01*
X146260289Y-68121789D01*
X146371789Y-68010289D01*
X146431348Y-67921153D01*
X148949500Y-67921153D01*
X148949500Y-68078846D01*
X148980261Y-68233489D01*
X148980264Y-68233501D01*
X149040602Y-68379172D01*
X149040609Y-68379185D01*
X149128210Y-68510288D01*
X149128213Y-68510292D01*
X149239707Y-68621786D01*
X149239711Y-68621789D01*
X149370814Y-68709390D01*
X149370827Y-68709397D01*
X149516498Y-68769735D01*
X149516503Y-68769737D01*
X149671153Y-68800499D01*
X149671156Y-68800500D01*
X149671158Y-68800500D01*
X149828844Y-68800500D01*
X149828845Y-68800499D01*
X149983497Y-68769737D01*
X150102565Y-68720418D01*
X156400235Y-68720418D01*
X156400235Y-68878111D01*
X156430996Y-69032754D01*
X156430999Y-69032766D01*
X156491337Y-69178437D01*
X156491344Y-69178450D01*
X156578945Y-69309553D01*
X156578948Y-69309557D01*
X156690442Y-69421051D01*
X156690446Y-69421054D01*
X156821549Y-69508655D01*
X156821562Y-69508662D01*
X156967233Y-69569000D01*
X156967238Y-69569002D01*
X157121888Y-69599764D01*
X157121891Y-69599765D01*
X157121893Y-69599765D01*
X157279579Y-69599765D01*
X157279580Y-69599764D01*
X157434232Y-69569002D01*
X157487385Y-69546985D01*
X157534870Y-69527317D01*
X157579907Y-69508662D01*
X157579907Y-69508661D01*
X157579914Y-69508659D01*
X157711024Y-69421054D01*
X157822524Y-69309554D01*
X157910129Y-69178444D01*
X157970472Y-69032762D01*
X158001235Y-68878107D01*
X158001235Y-68720423D01*
X158001235Y-68720420D01*
X158001234Y-68720418D01*
X157999040Y-68709390D01*
X157970472Y-68565768D01*
X157970470Y-68565763D01*
X157910132Y-68420092D01*
X157910125Y-68420079D01*
X157822524Y-68288976D01*
X157822521Y-68288972D01*
X157711027Y-68177478D01*
X157711023Y-68177475D01*
X157701562Y-68171153D01*
X161449500Y-68171153D01*
X161449500Y-68328846D01*
X161480261Y-68483489D01*
X161480264Y-68483501D01*
X161540602Y-68629172D01*
X161540609Y-68629185D01*
X161628210Y-68760288D01*
X161628213Y-68760292D01*
X161739707Y-68871786D01*
X161739711Y-68871789D01*
X161870814Y-68959390D01*
X161870827Y-68959397D01*
X162016498Y-69019735D01*
X162016503Y-69019737D01*
X162171153Y-69050499D01*
X162171156Y-69050500D01*
X162171158Y-69050500D01*
X162328844Y-69050500D01*
X162328845Y-69050499D01*
X162483497Y-69019737D01*
X162629179Y-68959394D01*
X162760289Y-68871789D01*
X162871789Y-68760289D01*
X162959394Y-68629179D01*
X162962456Y-68621788D01*
X162985659Y-68565768D01*
X163019737Y-68483497D01*
X163050500Y-68328842D01*
X163050500Y-68171158D01*
X163050500Y-68171155D01*
X163050499Y-68171153D01*
X163022328Y-68029529D01*
X163019737Y-68016503D01*
X162980242Y-67921153D01*
X162959397Y-67870827D01*
X162959390Y-67870814D01*
X162871789Y-67739711D01*
X162871786Y-67739707D01*
X162760292Y-67628213D01*
X162760288Y-67628210D01*
X162629185Y-67540609D01*
X162629172Y-67540602D01*
X162483501Y-67480264D01*
X162483489Y-67480261D01*
X162328845Y-67449500D01*
X162328842Y-67449500D01*
X162171158Y-67449500D01*
X162171155Y-67449500D01*
X162016510Y-67480261D01*
X162016498Y-67480264D01*
X161870827Y-67540602D01*
X161870814Y-67540609D01*
X161739711Y-67628210D01*
X161739707Y-67628213D01*
X161628213Y-67739707D01*
X161628210Y-67739711D01*
X161540609Y-67870814D01*
X161540602Y-67870827D01*
X161480264Y-68016498D01*
X161480261Y-68016510D01*
X161449500Y-68171153D01*
X157701562Y-68171153D01*
X157579920Y-68089874D01*
X157579907Y-68089867D01*
X157434236Y-68029529D01*
X157434224Y-68029526D01*
X157279580Y-67998765D01*
X157279577Y-67998765D01*
X157121893Y-67998765D01*
X157121890Y-67998765D01*
X156967245Y-68029526D01*
X156967233Y-68029529D01*
X156821562Y-68089867D01*
X156821549Y-68089874D01*
X156690446Y-68177475D01*
X156690442Y-68177478D01*
X156578948Y-68288972D01*
X156578945Y-68288976D01*
X156491344Y-68420079D01*
X156491337Y-68420092D01*
X156430999Y-68565763D01*
X156430996Y-68565775D01*
X156400235Y-68720418D01*
X150102565Y-68720418D01*
X150129179Y-68709394D01*
X150260289Y-68621789D01*
X150371789Y-68510289D01*
X150459394Y-68379179D01*
X150519737Y-68233497D01*
X150550500Y-68078842D01*
X150550500Y-67921158D01*
X150550500Y-67921155D01*
X150550499Y-67921153D01*
X150519738Y-67766510D01*
X150519737Y-67766503D01*
X150519735Y-67766498D01*
X150459397Y-67620827D01*
X150459390Y-67620814D01*
X150371789Y-67489711D01*
X150371786Y-67489707D01*
X150260292Y-67378213D01*
X150260288Y-67378210D01*
X150129185Y-67290609D01*
X150129172Y-67290602D01*
X149983501Y-67230264D01*
X149983489Y-67230261D01*
X149828845Y-67199500D01*
X149828842Y-67199500D01*
X149671158Y-67199500D01*
X149671155Y-67199500D01*
X149516510Y-67230261D01*
X149516498Y-67230264D01*
X149370827Y-67290602D01*
X149370814Y-67290609D01*
X149239711Y-67378210D01*
X149239707Y-67378213D01*
X149128213Y-67489707D01*
X149128210Y-67489711D01*
X149040609Y-67620814D01*
X149040602Y-67620827D01*
X148980264Y-67766498D01*
X148980261Y-67766510D01*
X148949500Y-67921153D01*
X146431348Y-67921153D01*
X146459394Y-67879179D01*
X146519737Y-67733497D01*
X146550500Y-67578842D01*
X146550500Y-67421158D01*
X146550500Y-67421155D01*
X146550499Y-67421153D01*
X146524531Y-67290606D01*
X146519737Y-67266503D01*
X146519735Y-67266498D01*
X146459397Y-67120827D01*
X146459390Y-67120814D01*
X146371789Y-66989711D01*
X146371786Y-66989707D01*
X146260292Y-66878213D01*
X146260288Y-66878210D01*
X146129185Y-66790609D01*
X146129172Y-66790602D01*
X145983501Y-66730264D01*
X145983489Y-66730261D01*
X145828845Y-66699500D01*
X145828842Y-66699500D01*
X145671158Y-66699500D01*
X145671155Y-66699500D01*
X145516510Y-66730261D01*
X145516498Y-66730264D01*
X145370827Y-66790602D01*
X145370814Y-66790609D01*
X145239711Y-66878210D01*
X145239707Y-66878213D01*
X145128213Y-66989707D01*
X145128210Y-66989711D01*
X145040609Y-67120814D01*
X145040602Y-67120827D01*
X144980264Y-67266498D01*
X144980261Y-67266510D01*
X144949500Y-67421153D01*
X101750500Y-67421153D01*
X101750500Y-64913953D01*
X144242698Y-64913953D01*
X144242698Y-65071646D01*
X144273459Y-65226289D01*
X144273462Y-65226301D01*
X144333800Y-65371972D01*
X144333807Y-65371985D01*
X144421408Y-65503088D01*
X144421411Y-65503092D01*
X144532905Y-65614586D01*
X144532909Y-65614589D01*
X144664012Y-65702190D01*
X144664025Y-65702197D01*
X144739601Y-65733501D01*
X144809701Y-65762537D01*
X144950828Y-65790609D01*
X144964351Y-65793299D01*
X144964354Y-65793300D01*
X144964356Y-65793300D01*
X145122042Y-65793300D01*
X145122043Y-65793299D01*
X145276695Y-65762537D01*
X145422377Y-65702194D01*
X145553487Y-65614589D01*
X145664987Y-65503089D01*
X145752592Y-65371979D01*
X145812935Y-65226297D01*
X145843698Y-65071642D01*
X145843698Y-64913958D01*
X145843698Y-64913955D01*
X145843697Y-64913953D01*
X145836780Y-64879179D01*
X145812935Y-64759303D01*
X145802242Y-64733488D01*
X145752595Y-64613627D01*
X145752588Y-64613614D01*
X145664987Y-64482511D01*
X145664984Y-64482507D01*
X145553490Y-64371013D01*
X145553486Y-64371010D01*
X145422383Y-64283409D01*
X145422370Y-64283402D01*
X145276699Y-64223064D01*
X145276687Y-64223061D01*
X145122043Y-64192300D01*
X145122040Y-64192300D01*
X144964356Y-64192300D01*
X144964353Y-64192300D01*
X144809708Y-64223061D01*
X144809696Y-64223064D01*
X144664025Y-64283402D01*
X144664012Y-64283409D01*
X144532909Y-64371010D01*
X144532905Y-64371013D01*
X144421411Y-64482507D01*
X144421408Y-64482511D01*
X144333807Y-64613614D01*
X144333800Y-64613627D01*
X144273462Y-64759298D01*
X144273459Y-64759310D01*
X144242698Y-64913953D01*
X101750500Y-64913953D01*
X101750500Y-62171153D01*
X154949500Y-62171153D01*
X154949500Y-62328846D01*
X154980261Y-62483489D01*
X154980264Y-62483501D01*
X155040602Y-62629172D01*
X155040609Y-62629185D01*
X155128210Y-62760288D01*
X155128213Y-62760292D01*
X155239707Y-62871786D01*
X155239711Y-62871789D01*
X155370814Y-62959390D01*
X155370827Y-62959397D01*
X155444013Y-62989711D01*
X155516503Y-63019737D01*
X155636168Y-63043540D01*
X155671153Y-63050499D01*
X155671156Y-63050500D01*
X155671158Y-63050500D01*
X155828843Y-63050500D01*
X155845939Y-63047099D01*
X155863831Y-63043540D01*
X155933423Y-63049767D01*
X155988601Y-63092629D01*
X156011846Y-63158518D01*
X156002586Y-63212607D01*
X155980264Y-63266499D01*
X155980261Y-63266510D01*
X155949500Y-63421153D01*
X155949500Y-63578846D01*
X155980260Y-63733488D01*
X155980263Y-63733498D01*
X155993709Y-63765959D01*
X156001178Y-63835429D01*
X155969902Y-63897908D01*
X155966829Y-63901092D01*
X155878213Y-63989707D01*
X155878210Y-63989711D01*
X155790609Y-64120814D01*
X155790602Y-64120827D01*
X155730264Y-64266498D01*
X155730261Y-64266510D01*
X155699500Y-64421153D01*
X155699500Y-64578846D01*
X155730260Y-64733488D01*
X155730263Y-64733498D01*
X155743709Y-64765959D01*
X155751178Y-64835429D01*
X155719902Y-64897908D01*
X155716829Y-64901092D01*
X155628213Y-64989707D01*
X155628210Y-64989711D01*
X155540609Y-65120814D01*
X155540602Y-65120827D01*
X155480264Y-65266498D01*
X155480261Y-65266510D01*
X155449500Y-65421153D01*
X155449500Y-65578846D01*
X155480261Y-65733489D01*
X155480264Y-65733501D01*
X155540602Y-65879172D01*
X155540609Y-65879185D01*
X155628210Y-66010288D01*
X155628213Y-66010292D01*
X155739707Y-66121786D01*
X155739711Y-66121789D01*
X155870814Y-66209390D01*
X155870827Y-66209397D01*
X156008683Y-66266498D01*
X156016503Y-66269737D01*
X156171153Y-66300499D01*
X156171156Y-66300500D01*
X156325500Y-66300500D01*
X156392539Y-66320185D01*
X156438294Y-66372989D01*
X156449500Y-66424500D01*
X156449500Y-66578846D01*
X156480261Y-66733489D01*
X156480264Y-66733501D01*
X156540602Y-66879172D01*
X156540609Y-66879185D01*
X156628210Y-67010288D01*
X156628213Y-67010292D01*
X156739707Y-67121786D01*
X156739711Y-67121789D01*
X156870814Y-67209390D01*
X156870827Y-67209397D01*
X157008683Y-67266498D01*
X157016503Y-67269737D01*
X157171153Y-67300499D01*
X157171156Y-67300500D01*
X157171158Y-67300500D01*
X157328844Y-67300500D01*
X157328845Y-67300499D01*
X157483497Y-67269737D01*
X157629179Y-67209394D01*
X157760289Y-67121789D01*
X157871789Y-67010289D01*
X157959394Y-66879179D01*
X158019737Y-66733497D01*
X158050500Y-66578842D01*
X158050500Y-66421158D01*
X158050500Y-66421155D01*
X158050499Y-66421153D01*
X158019737Y-66266503D01*
X157959794Y-66121786D01*
X157959397Y-66120827D01*
X157959390Y-66120814D01*
X157871789Y-65989711D01*
X157871786Y-65989707D01*
X157760292Y-65878213D01*
X157760288Y-65878210D01*
X157629185Y-65790609D01*
X157629172Y-65790602D01*
X157483501Y-65730264D01*
X157483489Y-65730261D01*
X157328845Y-65699500D01*
X157328842Y-65699500D01*
X157174500Y-65699500D01*
X157107461Y-65679815D01*
X157061706Y-65627011D01*
X157050500Y-65575500D01*
X157050500Y-65421155D01*
X157050499Y-65421153D01*
X157040719Y-65371985D01*
X157019737Y-65266503D01*
X157006290Y-65234041D01*
X156998821Y-65164573D01*
X157030095Y-65102093D01*
X157033143Y-65098934D01*
X157121789Y-65010289D01*
X157209394Y-64879179D01*
X157269737Y-64733497D01*
X157300500Y-64578842D01*
X157300500Y-64421158D01*
X157300500Y-64421155D01*
X157300499Y-64421153D01*
X157290525Y-64371010D01*
X157269737Y-64266503D01*
X157256290Y-64234041D01*
X157248821Y-64164573D01*
X157280095Y-64102093D01*
X157283143Y-64098934D01*
X157371789Y-64010289D01*
X157459394Y-63879179D01*
X157519737Y-63733497D01*
X157550500Y-63578842D01*
X157550500Y-63421158D01*
X157550500Y-63421155D01*
X157550499Y-63421153D01*
X157519738Y-63266510D01*
X157519737Y-63266503D01*
X157497413Y-63212607D01*
X157459397Y-63120827D01*
X157459390Y-63120814D01*
X157371789Y-62989711D01*
X157371786Y-62989707D01*
X157260292Y-62878213D01*
X157260288Y-62878210D01*
X157129185Y-62790609D01*
X157129172Y-62790602D01*
X156983501Y-62730264D01*
X156983489Y-62730261D01*
X156828845Y-62699500D01*
X156828842Y-62699500D01*
X156671158Y-62699500D01*
X156671157Y-62699500D01*
X156636164Y-62706460D01*
X156566573Y-62700231D01*
X156511396Y-62657367D01*
X156488153Y-62591477D01*
X156497414Y-62537389D01*
X156519737Y-62483497D01*
X156550500Y-62328842D01*
X156550500Y-62171158D01*
X156550500Y-62171155D01*
X156550499Y-62171153D01*
X156519738Y-62016510D01*
X156519737Y-62016503D01*
X156519735Y-62016498D01*
X156459397Y-61870827D01*
X156459390Y-61870814D01*
X156371789Y-61739711D01*
X156371786Y-61739707D01*
X156260292Y-61628213D01*
X156260288Y-61628210D01*
X156129185Y-61540609D01*
X156129172Y-61540602D01*
X155983501Y-61480264D01*
X155983489Y-61480261D01*
X155828845Y-61449500D01*
X155828842Y-61449500D01*
X155671158Y-61449500D01*
X155671155Y-61449500D01*
X155516510Y-61480261D01*
X155516498Y-61480264D01*
X155370827Y-61540602D01*
X155370814Y-61540609D01*
X155239711Y-61628210D01*
X155239707Y-61628213D01*
X155128213Y-61739707D01*
X155128210Y-61739711D01*
X155040609Y-61870814D01*
X155040602Y-61870827D01*
X154980264Y-62016498D01*
X154980261Y-62016510D01*
X154949500Y-62171153D01*
X101750500Y-62171153D01*
X101750500Y-60421153D01*
X139949500Y-60421153D01*
X139949500Y-60578846D01*
X139980261Y-60733489D01*
X139980264Y-60733501D01*
X140040602Y-60879172D01*
X140040609Y-60879185D01*
X140128210Y-61010288D01*
X140128213Y-61010292D01*
X140239707Y-61121786D01*
X140239711Y-61121789D01*
X140370814Y-61209390D01*
X140370827Y-61209397D01*
X140516498Y-61269735D01*
X140516503Y-61269737D01*
X140671153Y-61300499D01*
X140671156Y-61300500D01*
X140671158Y-61300500D01*
X140828844Y-61300500D01*
X140828845Y-61300499D01*
X140983497Y-61269737D01*
X141129179Y-61209394D01*
X141260289Y-61121789D01*
X141371789Y-61010289D01*
X141459394Y-60879179D01*
X141519737Y-60733497D01*
X141550500Y-60578842D01*
X141550500Y-60421158D01*
X141550500Y-60421155D01*
X141550499Y-60421153D01*
X141519737Y-60266503D01*
X141491848Y-60199172D01*
X141459397Y-60120827D01*
X141459390Y-60120814D01*
X141371789Y-59989711D01*
X141371786Y-59989707D01*
X141260292Y-59878213D01*
X141260288Y-59878210D01*
X141200361Y-59838168D01*
X141129185Y-59790609D01*
X141129172Y-59790602D01*
X141009790Y-59741153D01*
X163209500Y-59741153D01*
X163209500Y-59898846D01*
X163240261Y-60053489D01*
X163240264Y-60053501D01*
X163300602Y-60199172D01*
X163300609Y-60199185D01*
X163388210Y-60330288D01*
X163388213Y-60330292D01*
X163499707Y-60441786D01*
X163499711Y-60441789D01*
X163630814Y-60529390D01*
X163630827Y-60529397D01*
X163776498Y-60589735D01*
X163776503Y-60589737D01*
X163931153Y-60620499D01*
X163931156Y-60620500D01*
X163931158Y-60620500D01*
X164088844Y-60620500D01*
X164088845Y-60620499D01*
X164243497Y-60589737D01*
X164389179Y-60529394D01*
X164520289Y-60441789D01*
X164631789Y-60330289D01*
X164719394Y-60199179D01*
X164779737Y-60053497D01*
X164810500Y-59898842D01*
X164810500Y-59741158D01*
X164810500Y-59741155D01*
X164810499Y-59741153D01*
X164779738Y-59586510D01*
X164779737Y-59586503D01*
X164779735Y-59586498D01*
X164719397Y-59440827D01*
X164719390Y-59440814D01*
X164631789Y-59309711D01*
X164631786Y-59309707D01*
X164520292Y-59198213D01*
X164520288Y-59198210D01*
X164389185Y-59110609D01*
X164389172Y-59110602D01*
X164243501Y-59050264D01*
X164243489Y-59050261D01*
X164088845Y-59019500D01*
X164088842Y-59019500D01*
X163931158Y-59019500D01*
X163931155Y-59019500D01*
X163776510Y-59050261D01*
X163776498Y-59050264D01*
X163630827Y-59110602D01*
X163630814Y-59110609D01*
X163499711Y-59198210D01*
X163499707Y-59198213D01*
X163388213Y-59309707D01*
X163388210Y-59309711D01*
X163300609Y-59440814D01*
X163300602Y-59440827D01*
X163240264Y-59586498D01*
X163240261Y-59586510D01*
X163209500Y-59741153D01*
X141009790Y-59741153D01*
X140983501Y-59730264D01*
X140983489Y-59730261D01*
X140828845Y-59699500D01*
X140828842Y-59699500D01*
X140671158Y-59699500D01*
X140671155Y-59699500D01*
X140516510Y-59730261D01*
X140516498Y-59730264D01*
X140370827Y-59790602D01*
X140370814Y-59790609D01*
X140239711Y-59878210D01*
X140239707Y-59878213D01*
X140128213Y-59989707D01*
X140128210Y-59989711D01*
X140040609Y-60120814D01*
X140040602Y-60120827D01*
X139980264Y-60266498D01*
X139980261Y-60266510D01*
X139949500Y-60421153D01*
X101750500Y-60421153D01*
X101750500Y-56821153D01*
X154199500Y-56821153D01*
X154199500Y-56978846D01*
X154230261Y-57133489D01*
X154230264Y-57133501D01*
X154290602Y-57279172D01*
X154290609Y-57279185D01*
X154378210Y-57410288D01*
X154378213Y-57410292D01*
X154489707Y-57521786D01*
X154489711Y-57521789D01*
X154620814Y-57609390D01*
X154620827Y-57609397D01*
X154698356Y-57641510D01*
X154766503Y-57669737D01*
X154921153Y-57700499D01*
X154921156Y-57700500D01*
X154921158Y-57700500D01*
X155078844Y-57700500D01*
X155078845Y-57700499D01*
X155226378Y-57671153D01*
X156199500Y-57671153D01*
X156199500Y-57828846D01*
X156230261Y-57983489D01*
X156230264Y-57983501D01*
X156290602Y-58129172D01*
X156290609Y-58129185D01*
X156378210Y-58260288D01*
X156378213Y-58260292D01*
X156489707Y-58371786D01*
X156489711Y-58371789D01*
X156620814Y-58459390D01*
X156620827Y-58459397D01*
X156711101Y-58496789D01*
X156766503Y-58519737D01*
X156921153Y-58550499D01*
X156921156Y-58550500D01*
X156921158Y-58550500D01*
X157078844Y-58550500D01*
X157078845Y-58550499D01*
X157233497Y-58519737D01*
X157379179Y-58459394D01*
X157510289Y-58371789D01*
X157621789Y-58260289D01*
X157709394Y-58129179D01*
X157769737Y-57983497D01*
X157800500Y-57828842D01*
X157800500Y-57796153D01*
X163699500Y-57796153D01*
X163699500Y-57953846D01*
X163730261Y-58108489D01*
X163730264Y-58108501D01*
X163790602Y-58254172D01*
X163790609Y-58254185D01*
X163878210Y-58385288D01*
X163878213Y-58385292D01*
X163989707Y-58496786D01*
X163989711Y-58496789D01*
X164120814Y-58584390D01*
X164120827Y-58584397D01*
X164266498Y-58644735D01*
X164266503Y-58644737D01*
X164421153Y-58675499D01*
X164421156Y-58675500D01*
X164421158Y-58675500D01*
X164578844Y-58675500D01*
X164578845Y-58675499D01*
X164733497Y-58644737D01*
X164879179Y-58584394D01*
X165010289Y-58496789D01*
X165121789Y-58385289D01*
X165209394Y-58254179D01*
X165269737Y-58108497D01*
X165300500Y-57953842D01*
X165300500Y-57796158D01*
X165300500Y-57796155D01*
X165300499Y-57796153D01*
X165281472Y-57700499D01*
X165269737Y-57641503D01*
X165269735Y-57641498D01*
X165209397Y-57495827D01*
X165209390Y-57495814D01*
X165121789Y-57364711D01*
X165121786Y-57364707D01*
X165010292Y-57253213D01*
X165010288Y-57253210D01*
X164879185Y-57165609D01*
X164879172Y-57165602D01*
X164733501Y-57105264D01*
X164733489Y-57105261D01*
X164578845Y-57074500D01*
X164578842Y-57074500D01*
X164421158Y-57074500D01*
X164421155Y-57074500D01*
X164266510Y-57105261D01*
X164266498Y-57105264D01*
X164120827Y-57165602D01*
X164120814Y-57165609D01*
X163989711Y-57253210D01*
X163989707Y-57253213D01*
X163878213Y-57364707D01*
X163878210Y-57364711D01*
X163790609Y-57495814D01*
X163790602Y-57495827D01*
X163730264Y-57641498D01*
X163730261Y-57641510D01*
X163699500Y-57796153D01*
X157800500Y-57796153D01*
X157800500Y-57671158D01*
X157800500Y-57671155D01*
X157800499Y-57671153D01*
X157770788Y-57521789D01*
X157769737Y-57516503D01*
X157761170Y-57495821D01*
X157709397Y-57370827D01*
X157709390Y-57370814D01*
X157621789Y-57239711D01*
X157621786Y-57239707D01*
X157510292Y-57128213D01*
X157510288Y-57128210D01*
X157379185Y-57040609D01*
X157379172Y-57040602D01*
X157233501Y-56980264D01*
X157233489Y-56980261D01*
X157078845Y-56949500D01*
X157078842Y-56949500D01*
X156921158Y-56949500D01*
X156921155Y-56949500D01*
X156766510Y-56980261D01*
X156766498Y-56980264D01*
X156620827Y-57040602D01*
X156620814Y-57040609D01*
X156489711Y-57128210D01*
X156489707Y-57128213D01*
X156378213Y-57239707D01*
X156378210Y-57239711D01*
X156290609Y-57370814D01*
X156290602Y-57370827D01*
X156230264Y-57516498D01*
X156230261Y-57516510D01*
X156199500Y-57671153D01*
X155226378Y-57671153D01*
X155233497Y-57669737D01*
X155379179Y-57609394D01*
X155379185Y-57609390D01*
X155450164Y-57561964D01*
X155481224Y-57541209D01*
X155510289Y-57521789D01*
X155621789Y-57410289D01*
X155709394Y-57279179D01*
X155769737Y-57133497D01*
X155800500Y-56978842D01*
X155800500Y-56821158D01*
X155800500Y-56821155D01*
X155800499Y-56821153D01*
X155769738Y-56666510D01*
X155769737Y-56666503D01*
X155769735Y-56666498D01*
X155709397Y-56520827D01*
X155709390Y-56520814D01*
X155621789Y-56389711D01*
X155621786Y-56389707D01*
X155510292Y-56278213D01*
X155510288Y-56278210D01*
X155379185Y-56190609D01*
X155379172Y-56190602D01*
X155233501Y-56130264D01*
X155233489Y-56130261D01*
X155078845Y-56099500D01*
X155078842Y-56099500D01*
X154921158Y-56099500D01*
X154921155Y-56099500D01*
X154766510Y-56130261D01*
X154766498Y-56130264D01*
X154620827Y-56190602D01*
X154620814Y-56190609D01*
X154489711Y-56278210D01*
X154489707Y-56278213D01*
X154378213Y-56389707D01*
X154378210Y-56389711D01*
X154290609Y-56520814D01*
X154290602Y-56520827D01*
X154230264Y-56666498D01*
X154230261Y-56666510D01*
X154199500Y-56821153D01*
X101750500Y-56821153D01*
X101750500Y-55424500D01*
X101770185Y-55357461D01*
X101822989Y-55311706D01*
X101874500Y-55300500D01*
X200625500Y-55300500D01*
X200692539Y-55320185D01*
G37*
%TD.AperFunction*%
%TD*%
M02*
