%TF.GenerationSoftware,KiCad,Pcbnew,9.0.7*%
%TF.CreationDate,2026-08-24T21:25:45-05:00*%
%TF.ProjectId,BardsAssistant,42617264-7341-4737-9369-7374616e742e,rev?*%
%TF.SameCoordinates,Original*%
%TF.FileFunction,Copper,L1,Top*%
%TF.FilePolarity,Positive*%
%FSLAX46Y46*%
G04 Gerber Fmt 4.6, Leading zero omitted, Abs format (unit mm)*
G04 Created by KiCad (PCBNEW 9.0.7) date 2026-08-24 21:25:45*
%MOMM*%
%LPD*%
G01*
G04 APERTURE LIST*
G04 Aperture macros list*
%AMRoundRect*
0 Rectangle with rounded corners*
0 $1 Rounding radius*
0 $2 $3 $4 $5 $6 $7 $8 $9 X,Y pos of 4 corners*
0 Add a 4 corners polygon primitive as box body*
4,1,4,$2,$3,$4,$5,$6,$7,$8,$9,$2,$3,0*
0 Add four circle primitives for the rounded corners*
1,1,$1+$1,$2,$3*
1,1,$1+$1,$4,$5*
1,1,$1+$1,$6,$7*
1,1,$1+$1,$8,$9*
0 Add four rect primitives between the rounded corners*
20,1,$1+$1,$2,$3,$4,$5,0*
20,1,$1+$1,$4,$5,$6,$7,0*
20,1,$1+$1,$6,$7,$8,$9,0*
20,1,$1+$1,$8,$9,$2,$3,0*%
G04 Aperture macros list end*
%TA.AperFunction,SMDPad,CuDef*%
%ADD10RoundRect,0.250000X-0.750000X0.275000X-0.750000X-0.275000X0.750000X-0.275000X0.750000X0.275000X0*%
%TD*%
%TA.AperFunction,ComponentPad*%
%ADD11C,0.500000*%
%TD*%
%TA.AperFunction,SMDPad,CuDef*%
%ADD12R,2.000000X2.000000*%
%TD*%
%TA.AperFunction,ViaPad*%
%ADD13C,0.600000*%
%TD*%
%TA.AperFunction,Conductor*%
%ADD14C,0.200000*%
%TD*%
%TA.AperFunction,Conductor*%
%ADD15C,0.300000*%
%TD*%
G04 APERTURE END LIST*
D10*
%TO.P,SW3,2,2*%
%TO.N,GND*%
X130500000Y-61475000D03*
%TO.P,SW3,1,1*%
%TO.N,Net-(IC1-IO4)*%
X130500000Y-57025000D03*
%TD*%
D11*
%TO.P,U1,11,PGND*%
%TO.N,GND*%
X112300000Y-121500000D03*
X112875000Y-120550000D03*
X112875000Y-122450000D03*
X113450000Y-121500000D03*
%TD*%
D10*
%TO.P,SW6,1,1*%
%TO.N,Net-(IC1-IO7)*%
X105750000Y-57075000D03*
%TO.P,SW6,2,2*%
%TO.N,GND*%
X105750000Y-61525000D03*
%TD*%
%TO.P,SW5,1,1*%
%TO.N,Net-(IC1-IO6)*%
X114750000Y-57075000D03*
%TO.P,SW5,2,2*%
%TO.N,GND*%
X114750000Y-61525000D03*
%TD*%
D12*
%TO.P,TP7,1,1*%
%TO.N,Net-(IC1-IO21)*%
X151500000Y-67350000D03*
%TD*%
D10*
%TO.P,SW4,1,1*%
%TO.N,Net-(IC1-IO5)*%
X122750000Y-57175000D03*
%TO.P,SW4,2,2*%
%TO.N,GND*%
X122750000Y-61625000D03*
%TD*%
D12*
%TO.P,TP9,1,1*%
%TO.N,Net-(IC1-IO38)*%
X146750000Y-64000000D03*
%TD*%
%TO.P,TP4,1,1*%
%TO.N,+3V3*%
X155000000Y-58750000D03*
%TD*%
%TO.P,TP8,1,1*%
%TO.N,Net-(IC1-IO37)*%
X147750000Y-67500000D03*
%TD*%
D13*
%TO.N,GND*%
X110800000Y-102200000D03*
X106200000Y-150800000D03*
X114300000Y-124500000D03*
X116250000Y-138000000D03*
X110000000Y-143000000D03*
X114600000Y-103800000D03*
X119550000Y-119000000D03*
X112500000Y-129000000D03*
X114500000Y-150000000D03*
X112800000Y-106400000D03*
X114550000Y-118750000D03*
X117800000Y-121000000D03*
X111000000Y-110600000D03*
X112325000Y-109640000D03*
%TO.N,+3V3*%
X117400000Y-122600000D03*
X115000000Y-122800000D03*
X111500000Y-127000000D03*
%TO.N,/USB_5V*%
X115988427Y-106668178D03*
X119600000Y-128200000D03*
%TO.N,GND*%
X104825000Y-103640000D03*
X111200000Y-148000000D03*
X103000000Y-151500000D03*
X102600000Y-113600000D03*
X111200000Y-112400000D03*
X196997017Y-102491051D03*
X188600000Y-104200000D03*
X183600000Y-101600000D03*
X132000000Y-68000000D03*
X151699998Y-62175002D03*
X190525000Y-120325000D03*
X184800000Y-100600000D03*
X175450000Y-107450000D03*
X134750000Y-68000000D03*
X114800000Y-63050000D03*
X105700000Y-63300000D03*
X141000000Y-77400000D03*
X189000000Y-102750000D03*
X141500000Y-69750000D03*
X122900000Y-63400000D03*
X166500000Y-65750000D03*
X145000000Y-59250000D03*
X161975000Y-56400000D03*
X139000000Y-69750000D03*
X189750000Y-97250000D03*
X184250000Y-95000000D03*
X184750000Y-98000000D03*
X163000000Y-71750000D03*
X187000000Y-113600000D03*
X162500000Y-64500000D03*
X176400000Y-68600000D03*
X174600000Y-111400000D03*
X159000000Y-70750000D03*
X145250000Y-56750000D03*
X185500000Y-108900000D03*
%TO.N,/MOSI*%
X160500000Y-80000000D03*
X157213343Y-71018329D03*
%TO.N,Net-(IC1-IO38)*%
X145043198Y-64992800D03*
%TO.N,Net-(IC1-IO4)*%
X155750000Y-62250000D03*
%TO.N,Net-(IC1-IO6)*%
X156500000Y-64500000D03*
%TO.N,/SCK*%
X159150000Y-77500000D03*
X199100000Y-104000000D03*
%TO.N,/CS*%
X199000000Y-105000000D03*
X198750000Y-95500000D03*
%TO.N,Net-(IC1-IO21)*%
X149750000Y-68000000D03*
%TO.N,/RST*%
X196507127Y-106250055D03*
X160317019Y-69726812D03*
X157250000Y-66500000D03*
%TO.N,/DC*%
X193992873Y-105750055D03*
X157200735Y-68799265D03*
%TO.N,Net-(IC1-IO37)*%
X145750000Y-67500000D03*
%TO.N,Net-(IC1-IO7)*%
X156250000Y-65500000D03*
%TO.N,+3V3*%
X197750000Y-103750000D03*
X169200000Y-102400000D03*
X164010000Y-59820000D03*
X140750000Y-60500000D03*
X168750000Y-70250000D03*
X164500000Y-57875000D03*
X162250000Y-68250000D03*
X155000000Y-56900000D03*
X157000000Y-57750000D03*
X154000000Y-76000000D03*
X197250000Y-103250000D03*
X145800000Y-77400000D03*
X183540000Y-97600000D03*
%TO.N,Net-(IC1-IO5)*%
X156750000Y-63500000D03*
%TO.N,GND*%
X130500000Y-63750000D03*
%TD*%
D14*
%TO.N,/USB_5V*%
X119600000Y-128200000D02*
X121600000Y-126200000D01*
X116000000Y-106679751D02*
X115988427Y-106668178D01*
X117600000Y-110800000D02*
X116000000Y-109200000D01*
X116000000Y-107000000D02*
X116000000Y-106679751D01*
X121600000Y-126200000D02*
X121600000Y-113400000D01*
X121600000Y-113400000D02*
X119000000Y-110800000D01*
X119000000Y-110800000D02*
X117600000Y-110800000D01*
X116000000Y-109200000D02*
X116000000Y-109000000D01*
X116000000Y-109000000D02*
X116000000Y-107000000D01*
D15*
%TO.N,GND*%
X122750000Y-63250000D02*
X122900000Y-63400000D01*
X105750000Y-61525000D02*
X105750000Y-63250000D01*
X122750000Y-61625000D02*
X122750000Y-63250000D01*
X114750000Y-61525000D02*
X114750000Y-63000000D01*
X114750000Y-63000000D02*
X114800000Y-63050000D01*
X105750000Y-63250000D02*
X105700000Y-63300000D01*
D14*
%TO.N,/MOSI*%
X158151000Y-73750000D02*
X158151000Y-71955986D01*
X158151000Y-77651000D02*
X158151000Y-73750000D01*
X160500000Y-80000000D02*
X158151000Y-77651000D01*
X158151000Y-71955986D02*
X157213343Y-71018329D01*
D15*
%TO.N,Net-(IC1-IO38)*%
X146750000Y-64000000D02*
X146035998Y-64000000D01*
X146035998Y-64000000D02*
X145043198Y-64992800D01*
%TO.N,Net-(IC1-IO4)*%
X130876000Y-57401000D02*
X149901000Y-57401000D01*
X154750000Y-62250000D02*
X155750000Y-62250000D01*
X149901000Y-57401000D02*
X154750000Y-62250000D01*
%TO.N,Net-(IC1-IO6)*%
X123500000Y-58750000D02*
X123651000Y-58599000D01*
X114750000Y-57075000D02*
X116425000Y-58750000D01*
X116425000Y-58750000D02*
X123500000Y-58750000D01*
X149099000Y-58599000D02*
X150250000Y-59750000D01*
X155000000Y-64500000D02*
X156500000Y-64500000D01*
X150250000Y-59750000D02*
X155000000Y-64500000D01*
X123651000Y-58599000D02*
X149099000Y-58599000D01*
D14*
%TO.N,/SCK*%
X165250000Y-83600000D02*
X165250000Y-86567100D01*
X197899055Y-105649055D02*
X198099055Y-105849055D01*
X199500000Y-104000000D02*
X199100000Y-104000000D01*
X195556184Y-106351055D02*
X196258184Y-105649055D01*
X199750000Y-104250000D02*
X199500000Y-104000000D01*
X185033955Y-106351055D02*
X195556184Y-106351055D01*
X199150945Y-105849055D02*
X199750000Y-105250000D01*
X198099055Y-105849055D02*
X199150945Y-105849055D01*
X159150000Y-77500000D02*
X165250000Y-83600000D01*
X165250000Y-86567100D02*
X185033955Y-106351055D01*
X196258184Y-105649055D02*
X197899055Y-105649055D01*
X199750000Y-105250000D02*
X199750000Y-104250000D01*
%TO.N,/CS*%
X199000000Y-100000000D02*
X199000000Y-95750000D01*
X199000000Y-95750000D02*
X198750000Y-95500000D01*
X199000000Y-105000000D02*
X198500000Y-104500000D01*
X198500000Y-103500000D02*
X198500000Y-100500000D01*
X198500000Y-100500000D02*
X199000000Y-100000000D01*
X198500000Y-104500000D02*
X198500000Y-103500000D01*
%TO.N,Net-(IC1-IO21)*%
X151500000Y-67350000D02*
X150400000Y-67350000D01*
X150400000Y-67350000D02*
X149750000Y-68000000D01*
%TO.N,/RST*%
X157000000Y-66750000D02*
X157250000Y-66500000D01*
X178317019Y-92800000D02*
X160317019Y-74800000D01*
X198050000Y-92800000D02*
X200250000Y-95000000D01*
X200250000Y-105500000D02*
X200250000Y-95000000D01*
X160317019Y-69726812D02*
X159340207Y-68750000D01*
X199499945Y-106250055D02*
X200250000Y-105500000D01*
X196507127Y-106250055D02*
X199499945Y-106250055D01*
X157000000Y-67500000D02*
X157000000Y-66750000D01*
X198050000Y-92800000D02*
X178317019Y-92800000D01*
X160317019Y-74800000D02*
X160317019Y-69726812D01*
X158000000Y-68750000D02*
X157000000Y-67750000D01*
X157000000Y-67750000D02*
X157000000Y-67500000D01*
X159340207Y-68750000D02*
X158000000Y-68750000D01*
%TO.N,/DC*%
X157750000Y-69348530D02*
X157200735Y-68799265D01*
X173250000Y-89500000D02*
X158750000Y-75000000D01*
X158750000Y-71750000D02*
X157750000Y-70750000D01*
X182250000Y-102500000D02*
X182250000Y-98500000D01*
X182250000Y-103000000D02*
X182250000Y-102500000D01*
X158750000Y-74250000D02*
X158750000Y-71750000D01*
X193992873Y-105750055D02*
X193242818Y-105000000D01*
X193242818Y-105000000D02*
X184250000Y-105000000D01*
X182250000Y-98500000D02*
X173250000Y-89500000D01*
X157750000Y-70750000D02*
X157750000Y-69348530D01*
X184250000Y-105000000D02*
X182250000Y-103000000D01*
X158750000Y-75000000D02*
X158750000Y-74250000D01*
D15*
%TO.N,Net-(IC1-IO37)*%
X147750000Y-67500000D02*
X145750000Y-67500000D01*
%TO.N,Net-(IC1-IO7)*%
X108175000Y-59500000D02*
X130406870Y-59500000D01*
X151750000Y-65500000D02*
X156250000Y-65500000D01*
X132057870Y-61151000D02*
X147401000Y-61151000D01*
X105750000Y-57075000D02*
X108175000Y-59500000D01*
X147401000Y-61151000D02*
X151750000Y-65500000D01*
X130406870Y-59500000D02*
X132057870Y-61151000D01*
D14*
%TO.N,+3V3*%
X155000000Y-58750000D02*
X155000000Y-56900000D01*
D15*
%TO.N,Net-(IC1-IO5)*%
X150250000Y-58750000D02*
X155000000Y-63500000D01*
X127175000Y-57175000D02*
X128000000Y-58000000D01*
X149500000Y-58000000D02*
X150250000Y-58750000D01*
X155000000Y-63500000D02*
X156750000Y-63500000D01*
X128000000Y-58000000D02*
X149500000Y-58000000D01*
X122750000Y-57175000D02*
X127175000Y-57175000D01*
%TO.N,GND*%
X130500000Y-61725000D02*
X130500000Y-63750000D01*
%TO.N,Net-(IC1-IO4)*%
X130500000Y-57025000D02*
X130876000Y-57401000D01*
%TD*%
M02*
